<svg width="419.5624267578125px" height="176px" xmlns="http://www.w3.org/2000/svg" viewBox="40.218786621093756 -13 419.5624267578125 176" style="background: rgba(0, 0, 0, 0);" preserveAspectRatio="xMidYMid"><defs><linearGradient id="editing-shiny-gradient" x1="0" x2="1" y1="0.5000000000000001" y2="0.4999999999999999" gradientUnits="objectBoundingBox"><stop offset="0.0" stop-color="#00c1ff"></stop><stop offset="0.5" stop-color="#00c1ff"></stop><stop offset="1.0" stop-color="#00c1ff"></stop></linearGradient><linearGradient id="editing-shiny-gradient2" x1="0" x2="0" y1="0" y2="1"><stop offset="0.2" stop-color="#fff" stop-opacity="0.8"></stop><stop offset="0.8" stop-color="#fff" stop-opacity="0"></stop></linearGradient><filter id="editing-shiny2" x="-100%" y="-100%" width="300%" height="300%"><feMorphology operator="erode" radius="2"></feMorphology></filter><filter id="editing-shiny" x="-100%" y="-100%" width="300%" height="300%"><feFlood flood-color="#fff" result="flood"></feFlood><feConvolveMatrix in="SourceGraphic" result="conv" order="8,8" divisor="1" kernelMatrix="0 0 0 0 0 0 0 0 0 0 0 1 1 0 0 0 0 0 0 1 1 0 0 0 0 0 1 0 0 1 0 0 0 0 1 0 0 1 0 0 0 1 0 0 0 0 1 0 0 1 1 0 0 1 1 0 0 0 0 1 1 0 0 0 "></feConvolveMatrix><feOffset dx="0" dy="4" in="conv" result="offset"></feOffset><feComposite operator="in" in="flood" in2="offset" result="comp"></feComposite><feGaussianBlur in="offset" stdDeviation="3" result="shadow"></feGaussianBlur><feColorMatrix in="shadow" type="matrix" values="0.7 0 0 0 0  0 0.7 0 0 0  0 0 0.7 0 0  0 0 0 0.3 0" result="dark-shadow"></feColorMatrix><feOffset dx="0" dy="4" in="dark-shadow" result="offset-shadow"></feOffset><feOffset dx="0" dy="2" in="conv" result="offset-2"></feOffset><feComposite operator="out" in="offset" in2="offset-2" result="edge-diff"></feComposite><feGaussianBlur in="edge-diff" stdDeviation="1" result="edge-blur"></feGaussianBlur><feColorMatrix in="edge-blur" result="edge-shadow" type="matrix" values="0 0 0 0 0  0 0 0 0 0  0 0 0 0 0  0 0 0 0.5 0"></feColorMatrix><feComposite operator="in" in="edge-shadow" in2="offset" result="edge-shadow-in"></feComposite><feOffset dx="0" dy="1" in="edge-shadow-in" result="edge-shadow-final"></feOffset><feMerge result="out"><feMergeNode in="offset-shadow"></feMergeNode><feMergeNode in="comp"></feMergeNode><feMergeNode in="edge-shadow-final"></feMergeNode><feMergeNode in="SourceGraphic"></feMergeNode></feMerge></filter></defs><g filter="url(#editing-shiny)"><g transform="translate(102.82997918128967, 109.1350040435791)"><path d="M20.83-65.29L20.83-65.29L20.83-65.29Q24.74-66.59 27.90-66.59L27.90-66.59L27.90-66.59Q32.74-66.59 35.43-63.19L35.43-63.19L35.43-63.19Q38.13-59.80 39.62-53.57L39.62-53.57L39.62-53.57Q40.08-51.71 41.52-45.38L41.52-45.38L41.52-45.38Q42.97-39.06 43.90-35.15L43.90-35.15L43.90-35.15Q46.78-22.97 49.15-16.27L49.15-16.27L49.15-16.27Q51.52-9.58 56.73-5.58L56.73-5.58L56.73-5.58Q55.61-2.79 53.06-1.12L53.06-1.12L53.06-1.12Q50.50 0.56 47.52 0.56L47.52 0.56L47.52 0.56Q40.73 0.56 37.57-9.67L37.57-9.67L37.57-9.67Q36.08-14.41 34.88-18.97L34.88-18.97L34.88-18.97Q31.62-17.86 26.83-17.86L26.83-17.86L26.83-17.86Q22.04-17.86 15.07-18.88L15.07-18.88L15.07-18.88Q12.18-7.63 12.18-1.95L12.18-1.95L12.18-1.95Q12.18-0.74 12.28-0.19L12.28-0.19L12.28-0.19Q11.07 0 8.18 0L8.18 0L8.18 0Q5.30 0 3.12-1.81L3.12-1.81L3.12-1.81Q0.93-3.63 0.93-6.97L0.93-6.97L0.93-6.97Q0.93-11.63 9.86-34.22L9.86-34.22L9.86-34.22Q18.79-56.82 20.83-65.29ZM17.20-26.69L17.20-26.69L17.20-26.69Q20.93-26.23 24.78-26.23L24.78-26.23L24.78-26.23Q28.64-26.23 33.02-27.06L33.02-27.06L33.02-27.06Q32.18-30.88 27.34-56.27L27.34-56.27L27.34-56.27Q21.58-41.29 17.20-26.69ZM63.33-63.05L63.33-63.05L63.33-63.05Q76.72-66.59 86.68-66.59L86.68-66.59L86.68-66.59Q107.97-66.59 107.97-51.80L107.97-51.80L107.97-51.80Q107.97-42.78 99.51-38.04L99.51-38.04L99.51-38.04Q105.18-36.64 108.90-32.69L108.90-32.69L108.90-32.69Q112.62-28.74 112.62-22.79L112.62-22.79L112.62-22.79Q112.62-11.63 104.35-5.53L104.35-5.53L104.35-5.53Q96.07 0.56 83.89 0.56L83.89 0.56L83.89 0.56Q71.70 0.56 62.77-4.28L62.77-4.28L62.77-4.28Q65.66-14.32 65.66-31.39L65.66-31.39L65.66-31.39Q65.66-48.45 63.33-63.05ZM77.38-9.49L77.38-9.49L77.38-9.49Q81.47-8.18 85.56-8.18L85.56-8.18L85.56-8.18Q91.98-8.18 96.16-11.39L96.16-11.39L96.16-11.39Q100.35-14.60 100.35-20.46L100.35-20.46L100.35-20.46Q100.35-31.62 88.26-31.62L88.26-31.62L88.26-31.62Q82.49-31.62 76.54-29.20L76.54-29.20L76.54-29.20Q76.54-19.81 77.38-9.49ZM76.45-37.39L76.45-37.39L76.45-37.39Q77.75-37.66 80.31-38.04L80.31-38.04L80.31-38.04Q82.86-38.41 84.26-38.69L84.26-38.69L84.26-38.69Q85.65-38.97 87.75-39.52L87.75-39.52L87.75-39.52Q89.84-40.08 91.00-40.87L91.00-40.87L91.00-40.87Q92.16-41.66 93.37-42.87L93.37-42.87L93.37-42.87Q95.70-45.20 95.70-49.66L95.70-49.66L95.70-49.66Q95.70-58.31 85.37-58.31L85.37-58.31L85.37-58.31Q82.03-58.31 77.19-57.20L77.19-57.20L77.19-57.20Q76.45-38.13 76.45-37.39ZM165.63-33.85L165.63-33.85L165.63-33.85Q165.63-44.92 161.12-51.75L161.12-51.75L161.12-51.75Q156.61-58.59 147.03-58.59L147.03-58.59L147.03-58.59Q141.27-58.59 136.80-54.87L136.80-54.87L136.80-54.87Q134.29-50.96 132.85-44.36L132.85-44.36L132.85-44.36Q131.41-37.76 131.41-31.81L131.41-31.81L131.41-31.81Q131.41-20.83 135.87-14.23L135.87-14.23L135.87-14.23Q140.34-7.63 150.01-7.63L150.01-7.63L150.01-7.63Q155.31-7.63 159.03-11.90L159.03-11.90L159.03-11.90Q165.63-19.62 165.63-33.85ZM146.85 1.12L146.85 1.12L146.85 1.12Q133.27 1.12 126.20-7.86L126.20-7.86L126.20-7.86Q119.13-16.83 119.13-31.39L119.13-31.39L119.13-31.39Q119.13-45.94 127.87-56.54L127.87-56.54L127.87-56.54Q136.62-67.15 150.15-67.15L150.15-67.15L150.15-67.15Q163.68-67.15 170.79-58.03L170.79-58.03L170.79-58.03Q177.91-48.92 177.91-34.32L177.91-34.32L177.91-34.32Q177.91-19.72 169.17-9.30L169.17-9.30L169.17-9.30Q160.42 1.12 146.85 1.12ZM200.69-58.50L200.69-58.50L200.69-58.50Q200.69-51.52 199.35-40.08L199.35-40.08L199.35-40.08Q198.00-28.64 198.00-22.41L198.00-22.41L198.00-22.41Q198.00-16.18 201.34-12.04L201.34-12.04L201.34-12.04Q204.69-7.91 211.30-7.91L211.30-7.91L211.30-7.91Q213.99-7.91 217.81-9.21L217.81-9.21L217.81-9.21Q221.62-10.51 223.85-12.55L223.85-12.55L223.85-12.55Q225.06-22.88 225.06-39.11L225.06-39.11L225.06-39.11Q225.06-55.34 222.73-65.47L222.73-65.47L222.73-65.47Q225.71-66.59 229.06-66.59L229.06-66.59L229.06-66.59Q232.41-66.59 234.87-64.45L234.87-64.45L234.87-64.45Q237.34-62.31 237.34-58.87L237.34-58.87L237.34-58.87Q237.34-55.43 236.55-47.06L236.55-47.06L236.55-47.06Q235.75-38.69 235.75-28.32L235.75-28.32L235.75-28.32Q235.75-17.95 236.68-10.04L236.68-10.04L236.68-10.04Q223.11 1.12 209.16 1.12L209.16 1.12L209.16 1.12Q198.55 1.12 192.65-4.32L192.65-4.32L192.65-4.32Q186.74-9.77 186.74-20.09L186.74-20.09L186.74-20.09Q186.74-23.34 187.35-31.85L187.35-31.85L187.35-31.85Q187.95-40.36 187.95-44.27L187.95-44.27L187.95-44.27Q187.95-58.31 186.09-64.91L186.09-64.91L186.09-64.91Q189.07-66.03 192.42-66.03L192.42-66.03L192.42-66.03Q195.76-66.03 198.23-63.89L198.23-63.89L198.23-63.89Q200.69-61.75 200.69-58.50ZM250.45-66.31L250.45-66.31L270.07-66.03L270.07-66.03Q285.32-66.03 292.39-67.15L292.39-67.15L292.39-67.15Q293.41-65.19 293.41-62.68L293.41-62.68L293.41-62.68Q293.41-60.17 291.18-58.17L291.18-58.17L291.18-58.17Q288.95-56.17 285.79-56.17L285.79-56.17L275.09-57.38L275.09-57.38Q275.09-56.73 274.63-51.62L274.63-51.62L274.63-51.62Q273.33-39.06 273.33-26.41L273.33-26.41L273.33-26.41Q273.33-13.76 275.28-1.12L275.28-1.12L275.28-1.12Q272.21 0 268.86 0L268.86 0L268.86 0Q265.51 0 263.10-1.91L263.10-1.91L263.10-1.91Q260.68-3.81 260.68-7.67L260.68-7.67L260.68-7.67Q260.68-11.53 261.61-21.30L261.61-21.30L261.61-21.30Q262.54-31.06 262.54-40.32L262.54-40.32L262.54-40.32Q262.54-49.57 261.61-57.57L261.61-57.57L261.61-57.57Q250.36-57.01 244.03-54.41L244.03-54.41L244.03-54.41Q242.92-56.54 242.92-59.19L242.92-59.19L242.92-59.19Q242.92-61.84 245.06-64.08L245.06-64.08L245.06-64.08Q247.19-66.31 250.45-66.31Z" fill="url(#editing-shiny-gradient)"></path></g></g><g filter="url(#editing-shiny2)"><g transform="translate(103.15966820716858, 109.13500595092773)"><path d="M20.83-65.29L20.83-65.29L20.83-65.29Q24.74-66.59 27.90-66.59L27.90-66.59L27.90-66.59Q32.74-66.59 35.43-63.19L35.43-63.19L35.43-63.19Q38.13-59.80 39.62-53.57L39.62-53.57L39.62-53.57Q40.08-51.71 41.52-45.38L41.52-45.38L41.52-45.38Q42.97-39.06 43.90-35.15L43.90-35.15L43.90-35.15Q46.78-22.97 49.15-16.27L49.15-16.27L49.15-16.27Q51.52-9.58 56.73-5.58L56.73-5.58L56.73-5.58Q55.61-2.79 53.06-1.12L53.06-1.12L53.06-1.12Q50.50 0.56 47.52 0.56L47.52 0.56L47.52 0.56Q40.73 0.56 37.57-9.67L37.57-9.67L37.57-9.67Q36.08-14.41 34.88-18.97L34.88-18.97L34.88-18.97Q31.62-17.86 26.83-17.86L26.83-17.86L26.83-17.86Q22.04-17.86 15.07-18.88L15.07-18.88L15.07-18.88Q12.18-7.63 12.18-1.95L12.18-1.95L12.18-1.95Q12.18-0.74 12.28-0.19L12.28-0.19L12.28-0.19Q11.07 0 8.18 0L8.18 0L8.18 0Q5.30 0 3.12-1.81L3.12-1.81L3.12-1.81Q0.93-3.63 0.93-6.97L0.93-6.97L0.93-6.97Q0.93-11.63 9.86-34.22L9.86-34.22L9.86-34.22Q18.79-56.82 20.83-65.29ZM17.20-26.69L17.20-26.69L17.20-26.69Q20.93-26.23 24.78-26.23L24.78-26.23L24.78-26.23Q28.64-26.23 33.02-27.06L33.02-27.06L33.02-27.06Q32.18-30.88 27.34-56.27L27.34-56.27L27.34-56.27Q21.58-41.29 17.20-26.69ZM63.33-63.05L63.33-63.05L63.33-63.05Q76.72-66.59 86.68-66.59L86.68-66.59L86.68-66.59Q107.97-66.59 107.97-51.80L107.97-51.80L107.97-51.80Q107.97-42.78 99.51-38.04L99.51-38.04L99.51-38.04Q105.18-36.64 108.90-32.69L108.90-32.69L108.90-32.69Q112.62-28.74 112.62-22.79L112.62-22.79L112.62-22.79Q112.62-11.63 104.35-5.53L104.35-5.53L104.35-5.53Q96.07 0.56 83.89 0.56L83.89 0.56L83.89 0.56Q71.70 0.56 62.77-4.28L62.77-4.28L62.77-4.28Q65.66-14.32 65.66-31.39L65.66-31.39L65.66-31.39Q65.66-48.45 63.33-63.05ZM77.38-9.49L77.38-9.49L77.38-9.49Q81.47-8.18 85.56-8.18L85.56-8.18L85.56-8.18Q91.98-8.18 96.16-11.39L96.16-11.39L96.16-11.39Q100.35-14.60 100.35-20.46L100.35-20.46L100.35-20.46Q100.35-31.62 88.26-31.62L88.26-31.62L88.26-31.62Q82.49-31.62 76.54-29.20L76.54-29.20L76.54-29.20Q76.54-19.81 77.38-9.49ZM76.45-37.39L76.45-37.39L76.45-37.39Q77.75-37.66 80.31-38.04L80.31-38.04L80.31-38.04Q82.86-38.41 84.26-38.69L84.26-38.69L84.26-38.69Q85.65-38.97 87.75-39.52L87.75-39.52L87.75-39.52Q89.84-40.08 91.00-40.87L91.00-40.87L91.00-40.87Q92.16-41.66 93.37-42.87L93.37-42.87L93.37-42.87Q95.70-45.20 95.70-49.66L95.70-49.66L95.70-49.66Q95.70-58.31 85.37-58.31L85.37-58.31L85.37-58.31Q82.03-58.31 77.19-57.20L77.19-57.20L77.19-57.20Q76.45-38.13 76.45-37.39ZM165.63-33.85L165.63-33.85L165.63-33.85Q165.63-44.92 161.12-51.75L161.12-51.75L161.12-51.75Q156.61-58.59 147.03-58.59L147.03-58.59L147.03-58.59Q141.27-58.59 136.80-54.87L136.80-54.87L136.80-54.87Q134.29-50.96 132.85-44.36L132.85-44.36L132.85-44.36Q131.41-37.76 131.41-31.81L131.41-31.81L131.41-31.81Q131.41-20.83 135.87-14.23L135.87-14.23L135.87-14.23Q140.34-7.63 150.01-7.63L150.01-7.63L150.01-7.63Q155.31-7.63 159.03-11.90L159.03-11.90L159.03-11.90Q165.63-19.62 165.63-33.85ZM146.85 1.12L146.85 1.12L146.85 1.12Q133.27 1.12 126.20-7.86L126.20-7.86L126.20-7.86Q119.13-16.83 119.13-31.39L119.13-31.39L119.13-31.39Q119.13-45.94 127.87-56.54L127.87-56.54L127.87-56.54Q136.62-67.15 150.15-67.15L150.15-67.15L150.15-67.15Q163.68-67.15 170.79-58.03L170.79-58.03L170.79-58.03Q177.91-48.92 177.91-34.32L177.91-34.32L177.91-34.32Q177.91-19.72 169.17-9.30L169.17-9.30L169.17-9.30Q160.42 1.12 146.85 1.12ZM200.69-58.50L200.69-58.50L200.69-58.50Q200.69-51.52 199.35-40.08L199.35-40.08L199.35-40.08Q198.00-28.64 198.00-22.41L198.00-22.41L198.00-22.41Q198.00-16.18 201.34-12.04L201.34-12.04L201.34-12.04Q204.69-7.91 211.30-7.91L211.30-7.91L211.30-7.91Q213.99-7.91 217.81-9.21L217.81-9.21L217.81-9.21Q221.62-10.51 223.85-12.55L223.85-12.55L223.85-12.55Q225.06-22.88 225.06-39.11L225.06-39.11L225.06-39.11Q225.06-55.34 222.73-65.47L222.73-65.47L222.73-65.47Q225.71-66.59 229.06-66.59L229.06-66.59L229.06-66.59Q232.41-66.59 234.87-64.45L234.87-64.45L234.87-64.45Q237.34-62.31 237.34-58.87L237.34-58.87L237.34-58.87Q237.34-55.43 236.55-47.06L236.55-47.06L236.55-47.06Q235.75-38.69 235.75-28.32L235.75-28.32L235.75-28.32Q235.75-17.95 236.68-10.04L236.68-10.04L236.68-10.04Q223.11 1.12 209.16 1.12L209.16 1.12L209.16 1.12Q198.55 1.12 192.65-4.32L192.65-4.32L192.65-4.32Q186.74-9.77 186.74-20.09L186.74-20.09L186.74-20.09Q186.74-23.34 187.35-31.85L187.35-31.85L187.35-31.85Q187.95-40.36 187.95-44.27L187.95-44.27L187.95-44.27Q187.95-58.31 186.09-64.91L186.09-64.91L186.09-64.91Q189.07-66.03 192.42-66.03L192.42-66.03L192.42-66.03Q195.76-66.03 198.23-63.89L198.23-63.89L198.23-63.89Q200.69-61.75 200.69-58.50ZM250.45-66.31L250.45-66.31L270.07-66.03L270.07-66.03Q285.32-66.03 292.39-67.15L292.39-67.15L292.39-67.15Q293.41-65.19 293.41-62.68L293.41-62.68L293.41-62.68Q293.41-60.17 291.18-58.17L291.18-58.17L291.18-58.17Q288.95-56.17 285.79-56.17L285.79-56.17L275.09-57.38L275.09-57.38Q275.09-56.73 274.63-51.62L274.63-51.62L274.63-51.62Q273.33-39.06 273.33-26.41L273.33-26.41L273.33-26.41Q273.33-13.76 275.28-1.12L275.28-1.12L275.28-1.12Q272.21 0 268.86 0L268.86 0L268.86 0Q265.51 0 263.10-1.91L263.10-1.91L263.10-1.91Q260.68-3.81 260.68-7.67L260.68-7.67L260.68-7.67Q260.68-11.53 261.61-21.30L261.61-21.30L261.61-21.30Q262.54-31.06 262.54-40.32L262.54-40.32L262.54-40.32Q262.54-49.57 261.61-57.57L261.61-57.57L261.61-57.57Q250.36-57.01 244.03-54.41L244.03-54.41L244.03-54.41Q242.92-56.54 242.92-59.19L242.92-59.19L242.92-59.19Q242.92-61.84 245.06-64.08L245.06-64.08L245.06-64.08Q247.19-66.31 250.45-66.31Z" fill="url(#editing-shiny-gradient2)"></path></g></g><style>text {
  font-size: 64px;
  font-family: Arial Black;
  dominant-baseline: central;
  text-anchor: middle;
}</style></svg>