<svg width="338.1875px" height="171.2px" xmlns="http://www.w3.org/2000/svg" viewBox="80.90625 -10.599999999999994 338.1875 171.2" style="background: rgba(0, 0, 0, 0);" preserveAspectRatio="xMidYMid"><defs><linearGradient id="editing-shiny-gradient" x1="0" x2="1" y1="0.5000000000000001" y2="0.4999999999999999" gradientUnits="objectBoundingBox"><stop offset="0.0" stop-color="#00e7ff"></stop><stop offset="0.5" stop-color="#00e7ff"></stop><stop offset="1.0" stop-color="#00e7ff"></stop></linearGradient><linearGradient id="editing-shiny-gradient2" x1="0" x2="0" y1="0" y2="1"><stop offset="0.2" stop-color="#fff" stop-opacity="0.8"></stop><stop offset="0.8" stop-color="#fff" stop-opacity="0"></stop></linearGradient><filter id="editing-shiny2" x="-100%" y="-100%" width="300%" height="300%"><feMorphology operator="erode" radius="2"></feMorphology></filter><filter id="editing-shiny" x="-100%" y="-100%" width="300%" height="300%"><feFlood flood-color="#fff" result="flood"></feFlood><feConvolveMatrix in="SourceGraphic" result="conv" order="8,8" divisor="1" kernelMatrix="0 0 0 0 0 0 0 0 0 0 0 1 1 0 0 0 0 0 0 1 1 0 0 0 0 0 1 0 0 1 0 0 0 0 1 0 0 1 0 0 0 1 0 0 0 0 1 0 0 1 1 0 0 1 1 0 0 0 0 1 1 0 0 0 "></feConvolveMatrix><feOffset dx="0" dy="4" in="conv" result="offset"></feOffset><feComposite operator="in" in="flood" in2="offset" result="comp"></feComposite><feGaussianBlur in="offset" stdDeviation="3" result="shadow"></feGaussianBlur><feColorMatrix in="shadow" type="matrix" values="0.7 0 0 0 0  0 0.7 0 0 0  0 0 0.7 0 0  0 0 0 0.3 0" result="dark-shadow"></feColorMatrix><feOffset dx="0" dy="4" in="dark-shadow" result="offset-shadow"></feOffset><feOffset dx="0" dy="2" in="conv" result="offset-2"></feOffset><feComposite operator="out" in="offset" in2="offset-2" result="edge-diff"></feComposite><feGaussianBlur in="edge-diff" stdDeviation="1" result="edge-blur"></feGaussianBlur><feColorMatrix in="edge-blur" result="edge-shadow" type="matrix" values="0 0 0 0 0  0 0 0 0 0  0 0 0 0 0  0 0 0 0.5 0"></feColorMatrix><feComposite operator="in" in="edge-shadow" in2="offset" result="edge-shadow-in"></feComposite><feOffset dx="0" dy="1" in="edge-shadow-in" result="edge-shadow-final"></feOffset><feMerge result="out"><feMergeNode in="offset-shadow"></feMergeNode><feMergeNode in="comp"></feMergeNode><feMergeNode in="edge-shadow-final"></feMergeNode><feMergeNode in="SourceGraphic"></feMergeNode></feMerge></filter></defs><g filter="url(#editing-shiny)"><g transform="translate(132.7899854183197, 109.66999626159668)"><path d="M46.32-42.86L46.32-42.86L46.32-42.86Q43.86-32.40 43.86-21.89L43.86-21.89L43.86-21.89Q43.86-11.38 46.23-1.09L46.23-1.09L46.23-1.09Q42.95 0 39.49 0L39.49 0L39.49 0Q36.04 0 34.67-2.05L34.67-2.05L34.67-2.05Q33.31-4.09 33.31-7.96L33.31-7.96L33.31-7.96Q33.31-11.83 34.49-18.56L34.49-18.56L34.49-18.56Q28.03-4.73 22.02-1.09L22.02-1.09L22.02-1.09Q19.29 0.55 16.38 0.55L16.38 0.55L16.38 0.55Q9.46 0.55 5.64-4.60L5.64-4.60L5.64-4.60Q1.82-9.74 1.82-17.38L1.82-17.38L1.82-17.38Q1.82-29.03 8.28-37.81L8.28-37.81L8.28-37.81Q14.74-46.59 25.07-46.59L25.07-46.59L25.07-46.59Q35.40-46.59 46.32-42.86ZM34.40-37.40L34.40-37.40L34.40-37.40Q29.57-38.86 26.21-38.86L26.21-38.86L26.21-38.86Q19.38-38.86 16.02-35.85L16.02-35.85L16.02-35.85Q12.92-28.21 12.92-20.29L12.92-20.29L12.92-20.29Q12.92-16.11 14.24-11.83L14.24-11.83L14.24-11.83Q15.56-7.55 18.29-7.55L18.29-7.55L18.29-7.55Q21.48-7.55 26.48-16.93L26.48-16.93L26.48-16.93Q31.49-26.30 34.40-37.40ZM54.33-3.19L54.33-3.19L54.33-3.19Q56.42-21.29 56.42-28.12L56.42-28.12L56.42-28.12Q56.42-47.23 54.87-67.16L54.87-67.16L54.87-67.16Q57.60-68.25 60.70-68.25L60.70-68.25L60.70-68.25Q63.79-68.25 65.97-66.16L65.97-66.16L65.97-66.16Q68.16-64.06 68.16-60.88L68.16-60.88L68.16-60.88Q68.16-55.42 67.07-43.45L67.07-43.45L67.07-43.45Q65.97-31.49 65.70-27.48L65.70-27.48L65.70-27.48Q73.16-41.50 80.53-44.95L80.53-44.95L80.53-44.95Q83.81-46.59 87.54-46.59L87.54-46.59L87.54-46.59Q92.64-46.59 95.41-41.22L95.41-41.22L95.41-41.22Q98.19-35.85 98.19-28.12L98.19-28.12L98.19-28.12Q98.19-15.74 91.45-7.60L91.45-7.60L91.45-7.60Q84.72 0.55 74.03 0.55L74.03 0.55L74.03 0.55Q63.34 0.55 54.33-3.19ZM65.25-8.92L65.25-8.92L65.25-8.92Q68.89-7.55 73.89-7.55L73.89-7.55L73.89-7.55Q78.90-7.55 82.54-9.46L82.54-9.46L82.54-9.46Q87.00-17.11 87.00-26.12L87.00-26.12L87.00-26.12Q87.00-30.39 86.00-34.44L86.00-34.44L86.00-34.44Q84.99-38.49 82.81-38.49L82.81-38.49L82.81-38.49Q79.44-38.49 73.98-29.21L73.98-29.21L73.98-29.21Q68.52-19.93 65.25-8.92ZM122.21 1.09L122.21 1.09L122.21 1.09Q112.20 1.09 107.47-4.78L107.47-4.78L107.47-4.78Q102.74-10.65 102.74-21.16L102.74-21.16L102.74-21.16Q102.74-31.67 109.02-39.40L109.02-39.40L109.02-39.40Q115.30-47.14 125.13-47.14L125.13-47.14L125.13-47.14Q145.33-47.14 145.33-24.39L145.33-24.39L145.33-24.39Q145.33-13.74 138.78-6.32L138.78-6.32L138.78-6.32Q132.22 1.09 122.21 1.09ZM115.66-37.13L115.66-37.13L115.66-37.13Q114.02-31.85 114.02-26.57L114.02-26.57L114.02-26.57Q114.02-21.29 114.39-18.38L114.39-18.38L114.39-18.38Q114.75-15.47 115.75-12.56L115.75-12.56L115.75-12.56Q117.84-6.64 123.99-6.64L123.99-6.64L123.99-6.64Q130.13-6.64 132.09-9.92L132.09-9.92L132.09-9.92Q134.04-13.20 134.04-20.02L134.04-20.02L134.04-20.02Q134.04-39.40 124.85-39.40L124.85-39.40L124.85-39.40Q119.57-39.40 115.66-37.13ZM153.52-9.28L153.52-9.28L154.43-28.21L154.43-28.21Q154.43-37.04 151.88-44.95L151.88-44.95L151.88-44.95Q154.43-46.05 158.16-46.05L158.16-46.05L158.16-46.05Q165.44-46.05 165.44-37.95L165.44-37.95L165.44-37.95Q165.44-33.40 164.44-25.16L164.44-25.16L164.44-25.16Q163.44-16.93 163.44-13.20L163.44-13.20L163.44-13.20Q163.44-8.64 167.53-8.64L167.53-8.64L167.53-8.64Q169.99-8.64 173.31-12.79L173.31-12.79L173.31-12.79Q176.63-16.93 179.04-22.07L179.04-22.07L179.04-22.07Q181.45-27.21 181.91-30.48L181.91-30.48L181.91-30.48Q181.36-40.49 180.36-44.95L180.36-44.95L180.36-44.95Q183.27-46.05 186.32-46.05L186.32-46.05L186.32-46.05Q189.37-46.05 191.42-44.13L191.42-44.13L191.42-44.13Q193.47-42.22 193.47-39.40L193.47-39.40L193.47-39.40Q193.47-36.58 192.65-30.03L192.65-30.03L192.65-30.03Q191.83-23.48 191.83-16.33L191.83-16.33L191.83-16.33Q191.83-9.19 193.47-1.09L193.47-1.09L193.47-1.09Q189.92 0 187.10 0L187.10 0L187.10 0Q181.45 0 181.45-7.46L181.45-7.46L181.45-7.46Q181.45-10.74 182.18-16.56L182.18-16.56L182.18-16.56Q178.54-8.83 173.31-4.14L173.31-4.14L173.31-4.14Q168.08 0.55 162.71 0.55L162.71 0.55L162.71 0.55Q153.52 0.55 153.52-9.28ZM206.30-59.42L206.30-59.42L206.30-59.42Q209.21-60.88 212.21-60.88L212.21-60.88L212.21-60.88Q215.21-60.88 217.08-58.97L217.08-58.97L217.08-58.97Q218.95-57.06 218.95-53.33L218.95-53.33L218.95-53.33Q218.95-49.59 218.49-44.86L218.49-44.86L218.49-44.86Q225.32-44.86 231.50-46.77L231.50-46.77L231.50-46.77Q232.60-44.95 232.60-42.54L232.60-42.54L232.60-42.54Q232.60-40.13 230.46-38.63L230.46-38.63L230.46-38.63Q228.32-37.13 226.13-37.13L226.13-37.13L226.13-37.13Q223.95-37.13 221.22-37.67L221.22-37.67L221.22-37.67Q218.49-38.22 217.67-38.31L217.67-38.31L217.67-38.31Q217.58-37.49 217.17-35.03L217.17-35.03L217.17-35.03Q216.76-32.58 216.49-30.76L216.49-30.76L216.49-30.76Q215.76-25.75 215.76-20.02L215.76-20.02L215.76-20.02Q215.76-7.55 223.86-7.55L223.86-7.55L223.86-7.55Q226.86-7.55 230.78-9.65L230.78-9.65L230.78-9.65Q231.96-7.92 231.96-5.19L231.96-5.19L231.96-5.19Q231.96-2.46 229.00-0.96L229.00-0.96L229.00-0.96Q226.04 0.55 221.95 0.55L221.95 0.55L221.95 0.55Q205.93 0.55 205.93-17.65L205.93-17.65L205.93-17.65Q205.93-20.29 206.71-27.21L206.71-27.21L206.71-27.21Q207.48-34.13 207.48-38.40L207.48-38.40L207.48-38.40Q203.11-38.13 200.47-36.85L200.47-36.85L200.47-36.85Q199.38-38.49 199.38-40.63L199.38-40.63L199.38-40.63Q199.38-42.77 200.93-44.18L200.93-44.18L200.93-44.18Q202.47-45.59 204.75-45.59L204.75-45.59L204.75-45.59Q207.02-45.59 207.75-45.50L207.75-45.50L207.75-45.50Q207.84-46.23 207.84-47.41L207.84-47.41L207.84-47.41Q207.84-54.24 206.30-59.42Z" fill="url(#editing-shiny-gradient)"></path></g></g><g filter="url(#editing-shiny2)"><g transform="translate(132.79001593589783, 109.67000198364258)"><path d="M46.32-42.86L46.32-42.86L46.32-42.86Q43.86-32.40 43.86-21.89L43.86-21.89L43.86-21.89Q43.86-11.38 46.23-1.09L46.23-1.09L46.23-1.09Q42.95 0 39.49 0L39.49 0L39.49 0Q36.04 0 34.67-2.05L34.67-2.05L34.67-2.05Q33.31-4.09 33.31-7.96L33.31-7.96L33.31-7.96Q33.31-11.83 34.49-18.56L34.49-18.56L34.49-18.56Q28.03-4.73 22.02-1.09L22.02-1.09L22.02-1.09Q19.29 0.55 16.38 0.55L16.38 0.55L16.38 0.55Q9.46 0.55 5.64-4.60L5.64-4.60L5.64-4.60Q1.82-9.74 1.82-17.38L1.82-17.38L1.82-17.38Q1.82-29.03 8.28-37.81L8.28-37.81L8.28-37.81Q14.74-46.59 25.07-46.59L25.07-46.59L25.07-46.59Q35.40-46.59 46.32-42.86ZM34.40-37.40L34.40-37.40L34.40-37.40Q29.57-38.86 26.21-38.86L26.21-38.86L26.21-38.86Q19.38-38.86 16.02-35.85L16.02-35.85L16.02-35.85Q12.92-28.21 12.92-20.29L12.92-20.29L12.92-20.29Q12.92-16.11 14.24-11.83L14.24-11.83L14.24-11.83Q15.56-7.55 18.29-7.55L18.29-7.55L18.29-7.55Q21.48-7.55 26.48-16.93L26.48-16.93L26.48-16.93Q31.49-26.30 34.40-37.40ZM54.33-3.19L54.33-3.19L54.33-3.19Q56.42-21.29 56.42-28.12L56.42-28.12L56.42-28.12Q56.42-47.23 54.87-67.16L54.87-67.16L54.87-67.16Q57.60-68.25 60.70-68.25L60.70-68.25L60.70-68.25Q63.79-68.25 65.97-66.16L65.97-66.16L65.97-66.16Q68.16-64.06 68.16-60.88L68.16-60.88L68.16-60.88Q68.16-55.42 67.07-43.45L67.07-43.45L67.07-43.45Q65.97-31.49 65.70-27.48L65.70-27.48L65.70-27.48Q73.16-41.50 80.53-44.95L80.53-44.95L80.53-44.95Q83.81-46.59 87.54-46.59L87.54-46.59L87.54-46.59Q92.64-46.59 95.41-41.22L95.41-41.22L95.41-41.22Q98.19-35.85 98.19-28.12L98.19-28.12L98.19-28.12Q98.19-15.74 91.45-7.60L91.45-7.60L91.45-7.60Q84.72 0.55 74.03 0.55L74.03 0.55L74.03 0.55Q63.34 0.55 54.33-3.19ZM65.25-8.92L65.25-8.92L65.25-8.92Q68.89-7.55 73.89-7.55L73.89-7.55L73.89-7.55Q78.90-7.55 82.54-9.46L82.54-9.46L82.54-9.46Q87.00-17.11 87.00-26.12L87.00-26.12L87.00-26.12Q87.00-30.39 86.00-34.44L86.00-34.44L86.00-34.44Q84.99-38.49 82.81-38.49L82.81-38.49L82.81-38.49Q79.44-38.49 73.98-29.21L73.98-29.21L73.98-29.21Q68.52-19.93 65.25-8.92ZM122.21 1.09L122.21 1.09L122.21 1.09Q112.20 1.09 107.47-4.78L107.47-4.78L107.47-4.78Q102.74-10.65 102.74-21.16L102.74-21.16L102.74-21.16Q102.74-31.67 109.02-39.40L109.02-39.40L109.02-39.40Q115.30-47.14 125.13-47.14L125.13-47.14L125.13-47.14Q145.33-47.14 145.33-24.39L145.33-24.39L145.33-24.39Q145.33-13.74 138.78-6.32L138.78-6.32L138.78-6.32Q132.22 1.09 122.21 1.09ZM115.66-37.13L115.66-37.13L115.66-37.13Q114.02-31.85 114.02-26.57L114.02-26.57L114.02-26.57Q114.02-21.29 114.39-18.38L114.39-18.38L114.39-18.38Q114.75-15.47 115.75-12.56L115.75-12.56L115.75-12.56Q117.84-6.64 123.99-6.64L123.99-6.64L123.99-6.64Q130.13-6.64 132.09-9.92L132.09-9.92L132.09-9.92Q134.04-13.20 134.04-20.02L134.04-20.02L134.04-20.02Q134.04-39.40 124.85-39.40L124.85-39.40L124.85-39.40Q119.57-39.40 115.66-37.13ZM153.52-9.28L153.52-9.28L154.43-28.21L154.43-28.21Q154.43-37.04 151.88-44.95L151.88-44.95L151.88-44.95Q154.43-46.05 158.16-46.05L158.16-46.05L158.16-46.05Q165.44-46.05 165.44-37.95L165.44-37.95L165.44-37.95Q165.44-33.40 164.44-25.16L164.44-25.16L164.44-25.16Q163.44-16.93 163.44-13.20L163.44-13.20L163.44-13.20Q163.44-8.64 167.53-8.64L167.53-8.64L167.53-8.64Q169.99-8.64 173.31-12.79L173.31-12.79L173.31-12.79Q176.63-16.93 179.04-22.07L179.04-22.07L179.04-22.07Q181.45-27.21 181.91-30.48L181.91-30.48L181.91-30.48Q181.36-40.49 180.36-44.95L180.36-44.95L180.36-44.95Q183.27-46.05 186.32-46.05L186.32-46.05L186.32-46.05Q189.37-46.05 191.42-44.13L191.42-44.13L191.42-44.13Q193.47-42.22 193.47-39.40L193.47-39.40L193.47-39.40Q193.47-36.58 192.65-30.03L192.65-30.03L192.65-30.03Q191.83-23.48 191.83-16.33L191.83-16.33L191.83-16.33Q191.83-9.19 193.47-1.09L193.47-1.09L193.47-1.09Q189.92 0 187.10 0L187.10 0L187.10 0Q181.45 0 181.45-7.46L181.45-7.46L181.45-7.46Q181.45-10.74 182.18-16.56L182.18-16.56L182.18-16.56Q178.54-8.83 173.31-4.14L173.31-4.14L173.31-4.14Q168.08 0.55 162.71 0.55L162.71 0.55L162.71 0.55Q153.52 0.55 153.52-9.28ZM206.30-59.42L206.30-59.42L206.30-59.42Q209.21-60.88 212.21-60.88L212.21-60.88L212.21-60.88Q215.21-60.88 217.08-58.97L217.08-58.97L217.08-58.97Q218.95-57.06 218.95-53.33L218.95-53.33L218.95-53.33Q218.95-49.59 218.49-44.86L218.49-44.86L218.49-44.86Q225.32-44.86 231.50-46.77L231.50-46.77L231.50-46.77Q232.60-44.95 232.60-42.54L232.60-42.54L232.60-42.54Q232.60-40.13 230.46-38.63L230.46-38.63L230.46-38.63Q228.32-37.13 226.13-37.13L226.13-37.13L226.13-37.13Q223.95-37.13 221.22-37.67L221.22-37.67L221.22-37.67Q218.49-38.22 217.67-38.31L217.67-38.31L217.67-38.31Q217.58-37.49 217.17-35.03L217.17-35.03L217.17-35.03Q216.76-32.58 216.49-30.76L216.49-30.76L216.49-30.76Q215.76-25.75 215.76-20.02L215.76-20.02L215.76-20.02Q215.76-7.55 223.86-7.55L223.86-7.55L223.86-7.55Q226.86-7.55 230.78-9.65L230.78-9.65L230.78-9.65Q231.96-7.92 231.96-5.19L231.96-5.19L231.96-5.19Q231.96-2.46 229.00-0.96L229.00-0.96L229.00-0.96Q226.04 0.55 221.95 0.55L221.95 0.55L221.95 0.55Q205.93 0.55 205.93-17.65L205.93-17.65L205.93-17.65Q205.93-20.29 206.71-27.21L206.71-27.21L206.71-27.21Q207.48-34.13 207.48-38.40L207.48-38.40L207.48-38.40Q203.11-38.13 200.47-36.85L200.47-36.85L200.47-36.85Q199.38-38.49 199.38-40.63L199.38-40.63L199.38-40.63Q199.38-42.77 200.93-44.18L200.93-44.18L200.93-44.18Q202.47-45.59 204.75-45.59L204.75-45.59L204.75-45.59Q207.02-45.59 207.75-45.50L207.75-45.50L207.75-45.50Q207.84-46.23 207.84-47.41L207.84-47.41L207.84-47.41Q207.84-54.24 206.30-59.42Z" fill="url(#editing-shiny-gradient2)"></path></g></g><style>text {
  font-size: 64px;
  font-family: Arial Black;
  dominant-baseline: central;
  text-anchor: middle;
}</style></svg>