<svg width="648.6875px" height="171.2px" xmlns="http://www.w3.org/2000/svg" viewBox="-74.34375 -10.599999999999994 648.6875 171.2" style="background: rgba(0, 0, 0, 0);" preserveAspectRatio="xMidYMid"><defs><linearGradient id="editing-shiny-gradient" x1="0" x2="1" y1="0.5000000000000001" y2="0.4999999999999999" gradientUnits="objectBoundingBox"><stop offset="0.0" stop-color="#00e7ff"></stop><stop offset="0.5" stop-color="#00e7ff"></stop><stop offset="1.0" stop-color="#00e7ff"></stop></linearGradient><linearGradient id="editing-shiny-gradient2" x1="0" x2="0" y1="0" y2="1"><stop offset="0.2" stop-color="#fff" stop-opacity="0.8"></stop><stop offset="0.8" stop-color="#fff" stop-opacity="0"></stop></linearGradient><filter id="editing-shiny2" x="-100%" y="-100%" width="300%" height="300%"><feMorphology operator="erode" radius="2"></feMorphology></filter><filter id="editing-shiny" x="-100%" y="-100%" width="300%" height="300%"><feFlood flood-color="#fff" result="flood"></feFlood><feConvolveMatrix in="SourceGraphic" result="conv" order="8,8" divisor="1" kernelMatrix="0 0 0 0 0 0 0 0 0 0 0 1 1 0 0 0 0 0 0 1 1 0 0 0 0 0 1 0 0 1 0 0 0 0 1 0 0 1 0 0 0 1 0 0 0 0 1 0 0 1 1 0 0 1 1 0 0 0 0 1 1 0 0 0 "></feConvolveMatrix><feOffset dx="0" dy="4" in="conv" result="offset"></feOffset><feComposite operator="in" in="flood" in2="offset" result="comp"></feComposite><feGaussianBlur in="offset" stdDeviation="3" result="shadow"></feGaussianBlur><feColorMatrix in="shadow" type="matrix" values="0.7 0 0 0 0  0 0.7 0 0 0  0 0 0.7 0 0  0 0 0 0.3 0" result="dark-shadow"></feColorMatrix><feOffset dx="0" dy="4" in="dark-shadow" result="offset-shadow"></feOffset><feOffset dx="0" dy="2" in="conv" result="offset-2"></feOffset><feComposite operator="out" in="offset" in2="offset-2" result="edge-diff"></feComposite><feGaussianBlur in="edge-diff" stdDeviation="1" result="edge-blur"></feGaussianBlur><feColorMatrix in="edge-blur" result="edge-shadow" type="matrix" values="0 0 0 0 0  0 0 0 0 0  0 0 0 0 0  0 0 0 0.5 0"></feColorMatrix><feComposite operator="in" in="edge-shadow" in2="offset" result="edge-shadow-in"></feComposite><feOffset dx="0" dy="1" in="edge-shadow-in" result="edge-shadow-final"></feOffset><feMerge result="out"><feMergeNode in="offset-shadow"></feMergeNode><feMergeNode in="comp"></feMergeNode><feMergeNode in="edge-shadow-final"></feMergeNode><feMergeNode in="SourceGraphic"></feMergeNode></feMerge></filter></defs><g filter="url(#editing-shiny)"><g transform="translate(19.404998302459717, 105.98499870300293)"><path d="M22.84 1.09L22.84 1.09L22.84 1.09Q13.10 1.09 7.92-4.09L7.92-4.09L7.92-4.09Q2.73-9.28 2.73-19.02L2.73-19.02L2.73-19.02Q2.73-30.85 9.37-38.99L9.37-38.99L9.37-38.99Q16.02-47.14 27.03-47.14L27.03-47.14L27.03-47.14Q33.31-47.14 37.22-44.64L37.22-44.64L37.22-44.64Q41.13-42.13 41.13-37.22L41.13-37.22L41.13-37.22Q41.13-34.03 38.58-31.53L38.58-31.53L38.58-31.53Q36.04-29.03 32.85-29.03L32.85-29.03L32.85-29.03Q32.12-29.03 31.03-29.21L31.03-29.21L31.03-29.21Q31.30-30.39 31.30-31.30L31.30-31.30L31.30-31.30Q31.30-34.58 29.57-36.85L29.57-36.85L29.57-36.85Q27.85-39.13 23.84-39.13L23.84-39.13L23.84-39.13Q19.84-39.13 16.38-35.85L16.38-35.85L16.38-35.85Q13.92-29.48 13.92-19.93L13.92-19.93L13.92-19.93Q13.92-6.92 23.75-6.92L23.75-6.92L23.75-6.92Q29.03-6.92 31.62-10.33L31.62-10.33L31.62-10.33Q34.22-13.74 34.22-18.02L34.22-18.02L34.22-18.02Q37.31-18.02 39.59-16.47L39.59-16.47L39.59-16.47Q41.86-14.92 41.86-12.19L41.86-12.19L41.86-12.19Q41.86-6.28 35.81-2.59L35.81-2.59L35.81-2.59Q29.76 1.09 22.84 1.09ZM66.43 1.09L66.43 1.09L66.43 1.09Q56.42 1.09 51.69-4.78L51.69-4.78L51.69-4.78Q46.96-10.65 46.96-21.16L46.96-21.16L46.96-21.16Q46.96-31.67 53.23-39.40L53.23-39.40L53.23-39.40Q59.51-47.14 69.34-47.14L69.34-47.14L69.34-47.14Q89.54-47.14 89.54-24.39L89.54-24.39L89.54-24.39Q89.54-13.74 82.99-6.32L82.99-6.32L82.99-6.32Q76.44 1.09 66.43 1.09ZM59.88-37.13L59.88-37.13L59.88-37.13Q58.24-31.85 58.24-26.57L58.24-26.57L58.24-26.57Q58.24-21.29 58.60-18.38L58.60-18.38L58.60-18.38Q58.97-15.47 59.97-12.56L59.97-12.56L59.97-12.56Q62.06-6.64 68.20-6.64L68.20-6.64L68.20-6.64Q74.35-6.64 76.30-9.92L76.30-9.92L76.30-9.92Q78.26-13.20 78.26-20.02L78.26-20.02L78.26-20.02Q78.26-39.40 69.07-39.40L69.07-39.40L69.07-39.40Q63.79-39.40 59.88-37.13ZM139.14-36.76L139.14-36.76L138.23-16.74L138.23-16.74Q138.23-8.46 140.78-0.55L140.78-0.55L140.78-0.55Q138.23 0.55 134.95 0.55L134.95 0.55L134.95 0.55Q127.22 0.55 127.22-8.10L127.22-8.10L127.22-8.10Q127.22-12.01 128.22-21.25L128.22-21.25L128.22-21.25Q129.22-30.48 129.22-32.85L129.22-32.85L129.22-32.85Q129.22-37.40 125.13-37.40L125.13-37.40L125.13-37.40Q122.12-37.40 118.35-33.08L118.35-33.08L118.35-33.08Q114.57-28.76 111.88-23.43L111.88-23.43L111.88-23.43Q109.20-18.11 108.75-14.65L108.75-14.65L108.75-14.65Q109.11-7.55 110.56-1.09L110.56-1.09L110.56-1.09Q107.65 0 104.51 0L104.51 0L104.51 0Q101.37 0 99.42-1.50L99.42-1.50L99.42-1.50Q97.46-3.00 97.46-5.69L97.46-5.69L97.46-5.69Q97.46-8.37 98.28-15.33L98.28-15.33L98.28-15.33Q99.10-22.29 99.10-29.17L99.10-29.17L99.10-29.17Q99.10-36.04 97.01-44.95L97.01-44.95L97.01-44.95Q99.92-46.05 103.19-46.05L103.19-46.05L103.19-46.05Q106.47-46.05 108.52-44.13L108.52-44.13L108.52-44.13Q110.56-42.22 110.56-39.40L110.56-39.40L110.56-39.40Q110.56-36.58 109.84-30.39L109.84-30.39L109.84-30.39Q113.30-36.85 118.85-41.72L118.85-41.72L118.85-41.72Q124.40-46.59 129.95-46.59L129.95-46.59L129.95-46.59Q139.14-46.59 139.14-36.76ZM153.61-59.42L153.61-59.42L153.61-59.42Q156.52-60.88 159.52-60.88L159.52-60.88L159.52-60.88Q162.53-60.88 164.39-58.97L164.39-58.97L164.39-58.97Q166.26-57.06 166.26-53.33L166.26-53.33L166.26-53.33Q166.26-49.59 165.80-44.86L165.80-44.86L165.80-44.86Q172.63-44.86 178.81-46.77L178.81-46.77L178.81-46.77Q179.91-44.95 179.91-42.54L179.91-42.54L179.91-42.54Q179.91-40.13 177.77-38.63L177.77-38.63L177.77-38.63Q175.63-37.13 173.45-37.13L173.45-37.13L173.45-37.13Q171.26-37.13 168.53-37.67L168.53-37.67L168.53-37.67Q165.80-38.22 164.98-38.31L164.98-38.31L164.98-38.31Q164.89-37.49 164.48-35.03L164.48-35.03L164.48-35.03Q164.07-32.58 163.80-30.76L163.80-30.76L163.80-30.76Q163.07-25.75 163.07-20.02L163.07-20.02L163.07-20.02Q163.07-7.55 171.17-7.55L171.17-7.55L171.17-7.55Q174.17-7.55 178.09-9.65L178.09-9.65L178.09-9.65Q179.27-7.92 179.27-5.19L179.27-5.19L179.27-5.19Q179.27-2.46 176.31-0.96L176.31-0.96L176.31-0.96Q173.35 0.55 169.26 0.55L169.26 0.55L169.26 0.55Q153.24 0.55 153.24-17.65L153.24-17.65L153.24-17.65Q153.24-20.29 154.02-27.21L154.02-27.21L154.02-27.21Q154.79-34.13 154.79-38.40L154.79-38.40L154.79-38.40Q150.42-38.13 147.78-36.85L147.78-36.85L147.78-36.85Q146.69-38.49 146.69-40.63L146.69-40.63L146.69-40.63Q146.69-42.77 148.24-44.18L148.24-44.18L148.24-44.18Q149.79-45.59 152.06-45.59L152.06-45.59L152.06-45.59Q154.34-45.59 155.06-45.50L155.06-45.50L155.06-45.50Q155.16-46.23 155.16-47.41L155.16-47.41L155.16-47.41Q155.16-54.24 153.61-59.42ZM227.59-42.86L227.59-42.86L227.59-42.86Q225.13-32.40 225.13-21.89L225.13-21.89L225.13-21.89Q225.13-11.38 227.50-1.09L227.50-1.09L227.50-1.09Q224.22 0 220.77 0L220.77 0L220.77 0Q217.31 0 215.94-2.05L215.94-2.05L215.94-2.05Q214.58-4.09 214.58-7.96L214.58-7.96L214.58-7.96Q214.58-11.83 215.76-18.56L215.76-18.56L215.76-18.56Q209.30-4.73 203.29-1.09L203.29-1.09L203.29-1.09Q200.56 0.55 197.65 0.55L197.65 0.55L197.65 0.55Q190.74 0.55 186.91-4.60L186.91-4.60L186.91-4.60Q183.09-9.74 183.09-17.38L183.09-17.38L183.09-17.38Q183.09-29.03 189.55-37.81L189.55-37.81L189.55-37.81Q196.01-46.59 206.34-46.59L206.34-46.59L206.34-46.59Q216.67-46.59 227.59-42.86ZM215.67-37.40L215.67-37.40L215.67-37.40Q210.85-38.86 207.48-38.86L207.48-38.86L207.48-38.86Q200.66-38.86 197.29-35.85L197.29-35.85L197.29-35.85Q194.19-28.21 194.19-20.29L194.19-20.29L194.19-20.29Q194.19-16.11 195.51-11.83L195.51-11.83L195.51-11.83Q196.83-7.55 199.56-7.55L199.56-7.55L199.56-7.55Q202.75-7.55 207.75-16.93L207.75-16.93L207.75-16.93Q212.76-26.30 215.67-37.40ZM253.71 1.09L253.71 1.09L253.71 1.09Q243.97 1.09 238.78-4.09L238.78-4.09L238.78-4.09Q233.60-9.28 233.60-19.02L233.60-19.02L233.60-19.02Q233.60-30.85 240.24-38.99L240.24-38.99L240.24-38.99Q246.88-47.14 257.89-47.14L257.89-47.14L257.89-47.14Q264.17-47.14 268.09-44.64L268.09-44.64L268.09-44.64Q272.00-42.13 272.00-37.22L272.00-37.22L272.00-37.22Q272.00-34.03 269.45-31.53L269.45-31.53L269.45-31.53Q266.90-29.03 263.72-29.03L263.72-29.03L263.72-29.03Q262.99-29.03 261.90-29.21L261.90-29.21L261.90-29.21Q262.17-30.39 262.17-31.30L262.17-31.30L262.17-31.30Q262.17-34.58 260.44-36.85L260.44-36.85L260.44-36.85Q258.71-39.13 254.71-39.13L254.71-39.13L254.71-39.13Q250.70-39.13 247.25-35.85L247.25-35.85L247.25-35.85Q244.79-29.48 244.79-19.93L244.79-19.93L244.79-19.93Q244.79-6.92 254.62-6.92L254.62-6.92L254.62-6.92Q259.90-6.92 262.49-10.33L262.49-10.33L262.49-10.33Q265.08-13.74 265.08-18.02L265.08-18.02L265.08-18.02Q268.18-18.02 270.45-16.47L270.45-16.47L270.45-16.47Q272.73-14.92 272.73-12.19L272.73-12.19L272.73-12.19Q272.73-6.28 266.68-2.59L266.68-2.59L266.68-2.59Q260.62 1.09 253.71 1.09ZM284.28-59.42L284.28-59.42L284.28-59.42Q287.20-60.88 290.20-60.88L290.20-60.88L290.20-60.88Q293.20-60.88 295.07-58.97L295.07-58.97L295.07-58.97Q296.93-57.06 296.93-53.33L296.93-53.33L296.93-53.33Q296.93-49.59 296.48-44.86L296.48-44.86L296.48-44.86Q303.30-44.86 309.49-46.77L309.49-46.77L309.49-46.77Q310.58-44.95 310.58-42.54L310.58-42.54L310.58-42.54Q310.58-40.13 308.44-38.63L308.44-38.63L308.44-38.63Q306.31-37.13 304.12-37.13L304.12-37.13L304.12-37.13Q301.94-37.13 299.21-37.67L299.21-37.67L299.21-37.67Q296.48-38.22 295.66-38.31L295.66-38.31L295.66-38.31Q295.57-37.49 295.16-35.03L295.16-35.03L295.16-35.03Q294.75-32.58 294.48-30.76L294.48-30.76L294.48-30.76Q293.75-25.75 293.75-20.02L293.75-20.02L293.75-20.02Q293.75-7.55 301.85-7.55L301.85-7.55L301.85-7.55Q304.85-7.55 308.76-9.65L308.76-9.65L308.76-9.65Q309.95-7.92 309.95-5.19L309.95-5.19L309.95-5.19Q309.95-2.46 306.99-0.96L306.99-0.96L306.99-0.96Q304.03 0.55 299.94 0.55L299.94 0.55L299.94 0.55Q283.92 0.55 283.92-17.65L283.92-17.65L283.92-17.65Q283.92-20.29 284.69-27.21L284.69-27.21L284.69-27.21Q285.47-34.13 285.47-38.40L285.47-38.40L285.47-38.40Q281.10-38.13 278.46-36.85L278.46-36.85L278.46-36.85Q277.37-38.49 277.37-40.63L277.37-40.63L277.37-40.63Q277.37-42.77 278.91-44.18L278.91-44.18L278.91-44.18Q280.46-45.59 282.74-45.59L282.74-45.59L282.74-45.59Q285.01-45.59 285.74-45.50L285.74-45.50L285.74-45.50Q285.83-46.23 285.83-47.41L285.83-47.41L285.83-47.41Q285.83-54.24 284.28-59.42ZM411.87-36.76L411.87-36.76L410.96-17.29L410.96-17.29Q410.96-8.46 413.50-0.55L413.50-0.55L413.50-0.55Q410.96 0.55 407.68 0.55L407.68 0.55L407.68 0.55Q399.94 0.55 399.94-8.10L399.94-8.10L399.94-8.10Q399.94-12.01 400.95-21.25L400.95-21.25L400.95-21.25Q401.95-30.48 401.95-32.85L401.95-32.85L401.95-32.85Q401.95-37.40 398.22-37.40L398.22-37.40L398.22-37.40Q394.12-37.40 388.43-29.03L388.43-29.03L388.43-29.03Q382.75-20.66 382.75-15.92L382.75-15.92L382.75-15.92Q383.20-8.74 385.29-1.64L385.29-1.64L385.29-1.64Q381.84-0.55 379.47-0.55L379.47-0.55L379.47-0.55Q371.73-0.55 371.73-9.19L371.73-9.19L371.73-9.19Q371.73-12.83 372.74-21.38L372.74-21.38L372.74-21.38Q373.74-29.94 373.74-32.12L373.74-32.12L373.74-32.12Q373.74-36.67 369.64-36.67L369.64-36.67L369.64-36.67Q366.82-36.67 363.18-32.49L363.18-32.49L363.18-32.49Q359.54-28.30 357.04-23.25L357.04-23.25L357.04-23.25Q354.54-18.20 354.35-15.20L354.35-15.20L354.35-15.20Q354.81-7.37 356.17-1.09L356.17-1.09L356.17-1.09Q353.26 0 350.12 0L350.12 0L350.12 0Q346.98 0 345.03-1.50L345.03-1.50L345.03-1.50Q343.07-3.00 343.07-5.69L343.07-5.69L343.07-5.69Q343.07-8.37 343.89-15.33L343.89-15.33L343.89-15.33Q344.71-22.29 344.71-29.17L344.71-29.17L344.71-29.17Q344.71-36.04 342.61-44.95L342.61-44.95L342.61-44.95Q345.53-46.05 348.80-46.05L348.80-46.05L348.80-46.05Q352.08-46.05 354.13-44.13L354.13-44.13L354.13-44.13Q356.17-42.22 356.17-39.04L356.17-39.04L356.17-39.04Q356.17-37.40 355.54-31.03L355.54-31.03L355.54-31.03Q358.90-37.04 364.09-41.45L364.09-41.45L364.09-41.45Q369.28-45.86 374.46-45.86L374.46-45.86L374.46-45.86Q383.66-45.86 383.66-36.04L383.66-36.04L383.66-36.04Q383.66-33.58 383.38-30.58L383.38-30.58L383.38-30.58Q386.75-36.95 392.07-41.77L392.07-41.77L392.07-41.77Q397.40-46.59 402.67-46.59L402.67-46.59L402.67-46.59Q411.87-46.59 411.87-36.76ZM430.98-20.66L430.98-20.66L430.98-20.66Q430.98-14.11 433.07-10.33L433.07-10.33L433.07-10.33Q435.16-6.55 440.08-6.55L440.08-6.55L440.08-6.55Q444.99-6.55 447.77-9.87L447.77-9.87L447.77-9.87Q450.54-13.20 450.54-17.93L450.54-17.93L450.54-17.93Q453.63-17.93 455.91-16.38L455.91-16.38L455.91-16.38Q458.18-14.83 458.18-12.10L458.18-12.10L458.18-12.10Q458.18-6.46 452.18-2.68L452.18-2.68L452.18-2.68Q446.17 1.09 439.53 1.09L439.53 1.09L439.53 1.09Q429.16 1.09 424.51-4.50L424.51-4.50L424.51-4.50Q419.87-10.10 419.87-21.11L419.87-21.11L419.87-21.11Q419.87-32.12 426.11-39.63L426.11-39.63L426.11-39.63Q432.34-47.14 442.71-47.14L442.71-47.14L442.71-47.14Q449.81-47.14 454.14-43.91L454.14-43.91L454.14-43.91Q458.46-40.68 458.46-33.90L458.46-33.90L458.46-33.90Q458.46-27.12 452.32-23.71L452.32-23.71L452.32-23.71Q446.17-20.29 437.35-20.29L437.35-20.29L437.35-20.29Q434.25-20.29 430.98-20.66ZM431.07-27.85L431.07-27.85L431.07-27.85Q433.80-27.30 436.80-27.30L436.80-27.30L436.80-27.30Q443.35-27.30 447.81-29.76L447.81-29.76L447.81-29.76Q448.36-31.94 448.36-33.21L448.36-33.21L448.36-33.21Q448.36-36.40 446.08-38.04L446.08-38.04L446.08-38.04Q443.81-39.68 439.85-39.68L439.85-39.68L439.85-39.68Q435.89-39.68 432.70-37.13L432.70-37.13L432.70-37.13Q431.07-32.40 431.07-27.85Z" fill="url(#editing-shiny-gradient)"></path></g></g><g filter="url(#editing-shiny2)"><g transform="translate(19.405030727386475, 105.98500442504883)"><path d="M22.84 1.09L22.84 1.09L22.84 1.09Q13.10 1.09 7.92-4.09L7.92-4.09L7.92-4.09Q2.73-9.28 2.73-19.02L2.73-19.02L2.73-19.02Q2.73-30.85 9.37-38.99L9.37-38.99L9.37-38.99Q16.02-47.14 27.03-47.14L27.03-47.14L27.03-47.14Q33.31-47.14 37.22-44.64L37.22-44.64L37.22-44.64Q41.13-42.13 41.13-37.22L41.13-37.22L41.13-37.22Q41.13-34.03 38.58-31.53L38.58-31.53L38.58-31.53Q36.04-29.03 32.85-29.03L32.85-29.03L32.85-29.03Q32.12-29.03 31.03-29.21L31.03-29.21L31.03-29.21Q31.30-30.39 31.30-31.30L31.30-31.30L31.30-31.30Q31.30-34.58 29.57-36.85L29.57-36.85L29.57-36.85Q27.85-39.13 23.84-39.13L23.84-39.13L23.84-39.13Q19.84-39.13 16.38-35.85L16.38-35.85L16.38-35.85Q13.92-29.48 13.92-19.93L13.92-19.93L13.92-19.93Q13.92-6.92 23.75-6.92L23.75-6.92L23.75-6.92Q29.03-6.92 31.62-10.33L31.62-10.33L31.62-10.33Q34.22-13.74 34.22-18.02L34.22-18.02L34.22-18.02Q37.31-18.02 39.59-16.47L39.59-16.47L39.59-16.47Q41.86-14.92 41.86-12.19L41.86-12.19L41.86-12.19Q41.86-6.28 35.81-2.59L35.81-2.59L35.81-2.59Q29.76 1.09 22.84 1.09ZM66.43 1.09L66.43 1.09L66.43 1.09Q56.42 1.09 51.69-4.78L51.69-4.78L51.69-4.78Q46.96-10.65 46.96-21.16L46.96-21.16L46.96-21.16Q46.96-31.67 53.23-39.40L53.23-39.40L53.23-39.40Q59.51-47.14 69.34-47.14L69.34-47.14L69.34-47.14Q89.54-47.14 89.54-24.39L89.54-24.39L89.54-24.39Q89.54-13.74 82.99-6.32L82.99-6.32L82.99-6.32Q76.44 1.09 66.43 1.09ZM59.88-37.13L59.88-37.13L59.88-37.13Q58.24-31.85 58.24-26.57L58.24-26.57L58.24-26.57Q58.24-21.29 58.60-18.38L58.60-18.38L58.60-18.38Q58.97-15.47 59.97-12.56L59.97-12.56L59.97-12.56Q62.06-6.64 68.20-6.64L68.20-6.64L68.20-6.64Q74.35-6.64 76.30-9.92L76.30-9.92L76.30-9.92Q78.26-13.20 78.26-20.02L78.26-20.02L78.26-20.02Q78.26-39.40 69.07-39.40L69.07-39.40L69.07-39.40Q63.79-39.40 59.88-37.13ZM139.14-36.76L139.14-36.76L138.23-16.74L138.23-16.74Q138.23-8.46 140.78-0.55L140.78-0.55L140.78-0.55Q138.23 0.55 134.95 0.55L134.95 0.55L134.95 0.55Q127.22 0.55 127.22-8.10L127.22-8.10L127.22-8.10Q127.22-12.01 128.22-21.25L128.22-21.25L128.22-21.25Q129.22-30.48 129.22-32.85L129.22-32.85L129.22-32.85Q129.22-37.40 125.13-37.40L125.13-37.40L125.13-37.40Q122.12-37.40 118.35-33.08L118.35-33.08L118.35-33.08Q114.57-28.76 111.88-23.43L111.88-23.43L111.88-23.43Q109.20-18.11 108.75-14.65L108.75-14.65L108.75-14.65Q109.11-7.55 110.56-1.09L110.56-1.09L110.56-1.09Q107.65 0 104.51 0L104.51 0L104.51 0Q101.37 0 99.42-1.50L99.42-1.50L99.42-1.50Q97.46-3.00 97.46-5.69L97.46-5.69L97.46-5.69Q97.46-8.37 98.28-15.33L98.28-15.33L98.28-15.33Q99.10-22.29 99.10-29.17L99.10-29.17L99.10-29.17Q99.10-36.04 97.01-44.95L97.01-44.95L97.01-44.95Q99.92-46.05 103.19-46.05L103.19-46.05L103.19-46.05Q106.47-46.05 108.52-44.13L108.52-44.13L108.52-44.13Q110.56-42.22 110.56-39.40L110.56-39.40L110.56-39.40Q110.56-36.58 109.84-30.39L109.84-30.39L109.84-30.39Q113.30-36.85 118.85-41.72L118.85-41.72L118.85-41.72Q124.40-46.59 129.95-46.59L129.95-46.59L129.95-46.59Q139.14-46.59 139.14-36.76ZM153.61-59.42L153.61-59.42L153.61-59.42Q156.52-60.88 159.52-60.88L159.52-60.88L159.52-60.88Q162.53-60.88 164.39-58.97L164.39-58.97L164.39-58.97Q166.26-57.06 166.26-53.33L166.26-53.33L166.26-53.33Q166.26-49.59 165.80-44.86L165.80-44.86L165.80-44.86Q172.63-44.86 178.81-46.77L178.81-46.77L178.81-46.77Q179.91-44.95 179.91-42.54L179.91-42.54L179.91-42.54Q179.91-40.13 177.77-38.63L177.77-38.63L177.77-38.63Q175.63-37.13 173.45-37.13L173.45-37.13L173.45-37.13Q171.26-37.13 168.53-37.67L168.53-37.67L168.53-37.67Q165.80-38.22 164.98-38.31L164.98-38.31L164.98-38.31Q164.89-37.49 164.48-35.03L164.48-35.03L164.48-35.03Q164.07-32.58 163.80-30.76L163.80-30.76L163.80-30.76Q163.07-25.75 163.07-20.02L163.07-20.02L163.07-20.02Q163.07-7.55 171.17-7.55L171.17-7.55L171.17-7.55Q174.17-7.55 178.09-9.65L178.09-9.65L178.09-9.65Q179.27-7.92 179.27-5.19L179.27-5.19L179.27-5.19Q179.27-2.46 176.31-0.96L176.31-0.96L176.31-0.96Q173.35 0.55 169.26 0.55L169.26 0.55L169.26 0.55Q153.24 0.55 153.24-17.65L153.24-17.65L153.24-17.65Q153.24-20.29 154.02-27.21L154.02-27.21L154.02-27.21Q154.79-34.13 154.79-38.40L154.79-38.40L154.79-38.40Q150.42-38.13 147.78-36.85L147.78-36.85L147.78-36.85Q146.69-38.49 146.69-40.63L146.69-40.63L146.69-40.63Q146.69-42.77 148.24-44.18L148.24-44.18L148.24-44.18Q149.79-45.59 152.06-45.59L152.06-45.59L152.06-45.59Q154.34-45.59 155.06-45.50L155.06-45.50L155.06-45.50Q155.16-46.23 155.16-47.41L155.16-47.41L155.16-47.41Q155.16-54.24 153.61-59.42ZM227.59-42.86L227.59-42.86L227.59-42.86Q225.13-32.40 225.13-21.89L225.13-21.89L225.13-21.89Q225.13-11.38 227.50-1.09L227.50-1.09L227.50-1.09Q224.22 0 220.77 0L220.77 0L220.77 0Q217.31 0 215.94-2.05L215.94-2.05L215.94-2.05Q214.58-4.09 214.58-7.96L214.58-7.96L214.58-7.96Q214.58-11.83 215.76-18.56L215.76-18.56L215.76-18.56Q209.30-4.73 203.29-1.09L203.29-1.09L203.29-1.09Q200.56 0.55 197.65 0.55L197.65 0.55L197.65 0.55Q190.74 0.55 186.91-4.60L186.91-4.60L186.91-4.60Q183.09-9.74 183.09-17.38L183.09-17.38L183.09-17.38Q183.09-29.03 189.55-37.81L189.55-37.81L189.55-37.81Q196.01-46.59 206.34-46.59L206.34-46.59L206.34-46.59Q216.67-46.59 227.59-42.86ZM215.67-37.40L215.67-37.40L215.67-37.40Q210.85-38.86 207.48-38.86L207.48-38.86L207.48-38.86Q200.66-38.86 197.29-35.85L197.29-35.85L197.29-35.85Q194.19-28.21 194.19-20.29L194.19-20.29L194.19-20.29Q194.19-16.11 195.51-11.83L195.51-11.83L195.51-11.83Q196.83-7.55 199.56-7.55L199.56-7.55L199.56-7.55Q202.75-7.55 207.75-16.93L207.75-16.93L207.75-16.93Q212.76-26.30 215.67-37.40ZM253.71 1.09L253.71 1.09L253.71 1.09Q243.97 1.09 238.78-4.09L238.78-4.09L238.78-4.09Q233.60-9.28 233.60-19.02L233.60-19.02L233.60-19.02Q233.60-30.85 240.24-38.99L240.24-38.99L240.24-38.99Q246.88-47.14 257.89-47.14L257.89-47.14L257.89-47.14Q264.17-47.14 268.09-44.64L268.09-44.64L268.09-44.64Q272.00-42.13 272.00-37.22L272.00-37.22L272.00-37.22Q272.00-34.03 269.45-31.53L269.45-31.53L269.45-31.53Q266.90-29.03 263.72-29.03L263.72-29.03L263.72-29.03Q262.99-29.03 261.90-29.21L261.90-29.21L261.90-29.21Q262.17-30.39 262.17-31.30L262.17-31.30L262.17-31.30Q262.17-34.58 260.44-36.85L260.44-36.85L260.44-36.85Q258.71-39.13 254.71-39.13L254.71-39.13L254.71-39.13Q250.70-39.13 247.25-35.85L247.25-35.85L247.25-35.85Q244.79-29.48 244.79-19.93L244.79-19.93L244.79-19.93Q244.79-6.92 254.62-6.92L254.62-6.92L254.62-6.92Q259.90-6.92 262.49-10.33L262.49-10.33L262.49-10.33Q265.08-13.74 265.08-18.02L265.08-18.02L265.08-18.02Q268.18-18.02 270.45-16.47L270.45-16.47L270.45-16.47Q272.73-14.92 272.73-12.19L272.73-12.19L272.73-12.19Q272.73-6.28 266.68-2.59L266.68-2.59L266.68-2.59Q260.62 1.09 253.71 1.09ZM284.28-59.42L284.28-59.42L284.28-59.42Q287.20-60.88 290.20-60.88L290.20-60.88L290.20-60.88Q293.20-60.88 295.07-58.97L295.07-58.97L295.07-58.97Q296.93-57.06 296.93-53.33L296.93-53.33L296.93-53.33Q296.93-49.59 296.48-44.86L296.48-44.86L296.48-44.86Q303.30-44.86 309.49-46.77L309.49-46.77L309.49-46.77Q310.58-44.95 310.58-42.54L310.58-42.54L310.58-42.54Q310.58-40.13 308.44-38.63L308.44-38.63L308.44-38.63Q306.31-37.13 304.12-37.13L304.12-37.13L304.12-37.13Q301.94-37.13 299.21-37.67L299.21-37.67L299.21-37.67Q296.48-38.22 295.66-38.31L295.66-38.31L295.66-38.31Q295.57-37.49 295.16-35.03L295.16-35.03L295.16-35.03Q294.75-32.58 294.48-30.76L294.48-30.76L294.48-30.76Q293.75-25.75 293.75-20.02L293.75-20.02L293.75-20.02Q293.75-7.55 301.85-7.55L301.85-7.55L301.85-7.55Q304.85-7.55 308.76-9.65L308.76-9.65L308.76-9.65Q309.95-7.92 309.95-5.19L309.95-5.19L309.95-5.19Q309.95-2.46 306.99-0.96L306.99-0.96L306.99-0.96Q304.03 0.55 299.94 0.55L299.94 0.55L299.94 0.55Q283.92 0.55 283.92-17.65L283.92-17.65L283.92-17.65Q283.92-20.29 284.69-27.21L284.69-27.21L284.69-27.21Q285.47-34.13 285.47-38.40L285.47-38.40L285.47-38.40Q281.10-38.13 278.46-36.85L278.46-36.85L278.46-36.85Q277.37-38.49 277.37-40.63L277.37-40.63L277.37-40.63Q277.37-42.77 278.91-44.18L278.91-44.18L278.91-44.18Q280.46-45.59 282.74-45.59L282.74-45.59L282.74-45.59Q285.01-45.59 285.74-45.50L285.74-45.50L285.74-45.50Q285.83-46.23 285.83-47.41L285.83-47.41L285.83-47.41Q285.83-54.24 284.28-59.42ZM411.87-36.76L411.87-36.76L410.96-17.29L410.96-17.29Q410.96-8.46 413.50-0.55L413.50-0.55L413.50-0.55Q410.96 0.55 407.68 0.55L407.68 0.55L407.68 0.55Q399.94 0.55 399.94-8.10L399.94-8.10L399.94-8.10Q399.94-12.01 400.95-21.25L400.95-21.25L400.95-21.25Q401.95-30.48 401.95-32.85L401.95-32.85L401.95-32.85Q401.95-37.40 398.22-37.40L398.22-37.40L398.22-37.40Q394.12-37.40 388.43-29.03L388.43-29.03L388.43-29.03Q382.75-20.66 382.75-15.92L382.75-15.92L382.75-15.92Q383.20-8.74 385.29-1.64L385.29-1.64L385.29-1.64Q381.84-0.55 379.47-0.55L379.47-0.55L379.47-0.55Q371.73-0.55 371.73-9.19L371.73-9.19L371.73-9.19Q371.73-12.83 372.74-21.38L372.74-21.38L372.74-21.38Q373.74-29.94 373.74-32.12L373.74-32.12L373.74-32.12Q373.74-36.67 369.64-36.67L369.64-36.67L369.64-36.67Q366.82-36.67 363.18-32.49L363.18-32.49L363.18-32.49Q359.54-28.30 357.04-23.25L357.04-23.25L357.04-23.25Q354.54-18.20 354.35-15.20L354.35-15.20L354.35-15.20Q354.81-7.37 356.17-1.09L356.17-1.09L356.17-1.09Q353.26 0 350.12 0L350.12 0L350.12 0Q346.98 0 345.03-1.50L345.03-1.50L345.03-1.50Q343.07-3.00 343.07-5.69L343.07-5.69L343.07-5.69Q343.07-8.37 343.89-15.33L343.89-15.33L343.89-15.33Q344.71-22.29 344.71-29.17L344.71-29.17L344.71-29.17Q344.71-36.04 342.61-44.95L342.61-44.95L342.61-44.95Q345.53-46.05 348.80-46.05L348.80-46.05L348.80-46.05Q352.08-46.05 354.13-44.13L354.13-44.13L354.13-44.13Q356.17-42.22 356.17-39.04L356.17-39.04L356.17-39.04Q356.17-37.40 355.54-31.03L355.54-31.03L355.54-31.03Q358.90-37.04 364.09-41.45L364.09-41.45L364.09-41.45Q369.28-45.86 374.46-45.86L374.46-45.86L374.46-45.86Q383.66-45.86 383.66-36.04L383.66-36.04L383.66-36.04Q383.66-33.58 383.38-30.58L383.38-30.58L383.38-30.58Q386.75-36.95 392.07-41.77L392.07-41.77L392.07-41.77Q397.40-46.59 402.67-46.59L402.67-46.59L402.67-46.59Q411.87-46.59 411.87-36.76ZM430.98-20.66L430.98-20.66L430.98-20.66Q430.98-14.11 433.07-10.33L433.07-10.33L433.07-10.33Q435.16-6.55 440.08-6.55L440.08-6.55L440.08-6.55Q444.99-6.55 447.77-9.87L447.77-9.87L447.77-9.87Q450.54-13.20 450.54-17.93L450.54-17.93L450.54-17.93Q453.63-17.93 455.91-16.38L455.91-16.38L455.91-16.38Q458.18-14.83 458.18-12.10L458.18-12.10L458.18-12.10Q458.18-6.46 452.18-2.68L452.18-2.68L452.18-2.68Q446.17 1.09 439.53 1.09L439.53 1.09L439.53 1.09Q429.16 1.09 424.51-4.50L424.51-4.50L424.51-4.50Q419.87-10.10 419.87-21.11L419.87-21.11L419.87-21.11Q419.87-32.12 426.11-39.63L426.11-39.63L426.11-39.63Q432.34-47.14 442.71-47.14L442.71-47.14L442.71-47.14Q449.81-47.14 454.14-43.91L454.14-43.91L454.14-43.91Q458.46-40.68 458.46-33.90L458.46-33.90L458.46-33.90Q458.46-27.12 452.32-23.71L452.32-23.71L452.32-23.71Q446.17-20.29 437.35-20.29L437.35-20.29L437.35-20.29Q434.25-20.29 430.98-20.66ZM431.07-27.85L431.07-27.85L431.07-27.85Q433.80-27.30 436.80-27.30L436.80-27.30L436.80-27.30Q443.35-27.30 447.81-29.76L447.81-29.76L447.81-29.76Q448.36-31.94 448.36-33.21L448.36-33.21L448.36-33.21Q448.36-36.40 446.08-38.04L446.08-38.04L446.08-38.04Q443.81-39.68 439.85-39.68L439.85-39.68L439.85-39.68Q435.89-39.68 432.70-37.13L432.70-37.13L432.70-37.13Q431.07-32.40 431.07-27.85Z" fill="url(#editing-shiny-gradient2)"></path></g></g><style>text {
  font-size: 64px;
  font-family: Arial Black;
  dominant-baseline: central;
  text-anchor: middle;
}</style></svg>