<svg width="469.86878662109376px" height="171.2px" xmlns="http://www.w3.org/2000/svg" viewBox="15.06560668945312 -10.599999999999994 469.86878662109376 171.2" style="background: rgba(0, 0, 0, 0);" preserveAspectRatio="xMidYMid"><defs><linearGradient id="editing-shiny-gradient" x1="0" x2="1" y1="0.5000000000000001" y2="0.4999999999999999" gradientUnits="objectBoundingBox"><stop offset="0.0" stop-color="#00e7ff"></stop><stop offset="0.5" stop-color="#00e7ff"></stop><stop offset="1.0" stop-color="#00e7ff"></stop></linearGradient><linearGradient id="editing-shiny-gradient2" x1="0" x2="0" y1="0" y2="1"><stop offset="0.2" stop-color="#fff" stop-opacity="0.8"></stop><stop offset="0.8" stop-color="#fff" stop-opacity="0"></stop></linearGradient><filter id="editing-shiny2" x="-100%" y="-100%" width="300%" height="300%"><feMorphology operator="erode" radius="2"></feMorphology></filter><filter id="editing-shiny" x="-100%" y="-100%" width="300%" height="300%"><feFlood flood-color="#fff" result="flood"></feFlood><feConvolveMatrix in="SourceGraphic" result="conv" order="8,8" divisor="1" kernelMatrix="0 0 0 0 0 0 0 0 0 0 0 1 1 0 0 0 0 0 0 1 1 0 0 0 0 0 1 0 0 1 0 0 0 0 1 0 0 1 0 0 0 1 0 0 0 0 1 0 0 1 1 0 0 1 1 0 0 0 0 1 1 0 0 0 "></feConvolveMatrix><feOffset dx="0" dy="4" in="conv" result="offset"></feOffset><feComposite operator="in" in="flood" in2="offset" result="comp"></feComposite><feGaussianBlur in="offset" stdDeviation="3" result="shadow"></feGaussianBlur><feColorMatrix in="shadow" type="matrix" values="0.7 0 0 0 0  0 0.7 0 0 0  0 0 0.7 0 0  0 0 0 0.3 0" result="dark-shadow"></feColorMatrix><feOffset dx="0" dy="4" in="dark-shadow" result="offset-shadow"></feOffset><feOffset dx="0" dy="2" in="conv" result="offset-2"></feOffset><feComposite operator="out" in="offset" in2="offset-2" result="edge-diff"></feComposite><feGaussianBlur in="edge-diff" stdDeviation="1" result="edge-blur"></feGaussianBlur><feColorMatrix in="edge-blur" result="edge-shadow" type="matrix" values="0 0 0 0 0  0 0 0 0 0  0 0 0 0 0  0 0 0 0.5 0"></feColorMatrix><feComposite operator="in" in="edge-shadow" in2="offset" result="edge-shadow-in"></feComposite><feOffset dx="0" dy="1" in="edge-shadow-in" result="edge-shadow-final"></feOffset><feMerge result="out"><feMergeNode in="offset-shadow"></feMergeNode><feMergeNode in="comp"></feMergeNode><feMergeNode in="edge-shadow-final"></feMergeNode><feMergeNode in="SourceGraphic"></feMergeNode></feMerge></filter></defs><g filter="url(#editing-shiny)"><g transform="translate(83.0149793624878, 119.99999809265137)"><path d="M16.47-8.92L16.47-8.92L16.47-8.92Q20.20-7.55 25.12-7.55L25.12-7.55L25.12-7.55Q30.03-7.55 33.76-9.46L33.76-9.46L33.76-9.46Q38.22-17.11 38.22-27.80L38.22-27.80L38.22-27.80Q38.22-38.49 34.49-38.49L34.49-38.49L34.49-38.49Q29.85-38.49 24.07-29.12L24.07-29.12L24.07-29.12Q18.29-19.75 16.47-8.92ZM16.47-27.57L16.47-27.57L16.47-27.57Q26.12-46.59 37.86-46.59L37.86-46.59L37.86-46.59Q44.04-46.59 46.73-41.54L46.73-41.54L46.73-41.54Q49.41-36.49 49.41-28.76L49.41-28.76L49.41-28.76Q49.41-17.65 42.86-8.55L42.86-8.55L42.86-8.55Q36.31 0.55 26.39 0.55L26.39 0.55L26.39 0.55Q20.75 0.55 16.11-1.27L16.11-1.27L16.11-1.27Q16.29 11.19 17.65 21.57L17.65 21.57L17.65 21.57Q14.74 22.66 11.65 22.66L11.65 22.66L11.65 22.66Q8.55 22.66 6.55 20.61L6.55 20.61L6.55 20.61Q4.55 18.56 4.55 14.38L4.55 14.38L4.55 14.38Q4.55 10.19 5.64 0.09L5.64 0.09L5.64 0.09Q6.73-10.01 6.73-15.74L6.73-15.74L6.73-15.74Q6.73-34.67 4.73-44.95L4.73-44.95L4.73-44.95Q7.64-46.05 10.87-46.05L10.87-46.05L10.87-46.05Q14.11-46.05 15.88-44.18L15.88-44.18L15.88-44.18Q17.65-42.31 17.65-38.36L17.65-38.36L17.65-38.36Q17.65-34.40 16.47-27.57ZM70.25-1.09L70.25-1.09Q67.43 0 64.25 0L64.25 0L64.25 0Q61.06 0 59.10-1.50L59.10-1.50L59.10-1.50Q57.15-3.00 57.15-5.69L57.15-5.69L57.15-5.69Q57.15-8.37 57.97-15.47L57.97-15.47L57.97-15.47Q58.79-22.57 58.79-29.26L58.79-29.26L58.79-29.26Q58.79-35.95 56.69-44.95L56.69-44.95L56.69-44.95Q59.61-46.05 62.43-46.05L62.43-46.05L62.43-46.05Q65.25-46.05 67.29-44.13L67.29-44.13L67.29-44.13Q69.34-42.22 69.34-39.04L69.34-39.04L69.34-39.04Q69.34-37.40 68.80-34.17L68.80-34.17L68.80-34.17Q68.25-30.94 68.16-29.30L68.16-29.30L68.16-29.30Q71.71-37.40 76.58-42.00L76.58-42.00L76.58-42.00Q81.44-46.59 86.27-46.59L86.27-46.59L86.27-46.59Q89.63-46.59 91.64-44.23L91.64-44.23L91.64-44.23Q93.64-41.86 93.64-38.27L93.64-38.27L93.64-38.27Q93.64-34.67 91.82-32.44L91.82-32.44L91.82-32.44Q90.00-30.21 87.31-30.21L87.31-30.21L87.31-30.21Q84.63-30.21 82.99-30.76L82.99-30.76L82.99-30.76Q83.27-31.85 83.27-32.76L83.27-32.76L83.27-32.76Q83.27-36.49 80.63-36.49L80.63-36.49L80.63-36.49Q76.62-36.49 73.12-28.44L73.12-28.44L73.12-28.44Q69.62-20.38 68.43-13.38L68.43-13.38L68.43-13.38Q68.89-6.55 70.25-1.09L70.25-1.09ZM115.02 1.09L115.02 1.09L115.02 1.09Q105.01 1.09 100.28-4.78L100.28-4.78L100.28-4.78Q95.55-10.65 95.55-21.16L95.55-21.16L95.55-21.16Q95.55-31.67 101.83-39.40L101.83-39.40L101.83-39.40Q108.11-47.14 117.94-47.14L117.94-47.14L117.94-47.14Q138.14-47.14 138.14-24.39L138.14-24.39L138.14-24.39Q138.14-13.74 131.59-6.32L131.59-6.32L131.59-6.32Q125.03 1.09 115.02 1.09ZM108.47-37.13L108.47-37.13L108.47-37.13Q106.83-31.85 106.83-26.57L106.83-26.57L106.83-26.57Q106.83-21.29 107.20-18.38L107.20-18.38L107.20-18.38Q107.56-15.47 108.56-12.56L108.56-12.56L108.56-12.56Q110.66-6.64 116.80-6.64L116.80-6.64L116.80-6.64Q122.94-6.64 124.90-9.92L124.90-9.92L124.90-9.92Q126.85-13.20 126.85-20.02L126.85-20.02L126.85-20.02Q126.85-39.40 117.66-39.40L117.66-39.40L117.66-39.40Q112.38-39.40 108.47-37.13ZM146.33-65.79L146.33-65.79L146.33-65.79Q149.51-67.25 152.61-67.25L152.61-67.25L152.61-67.25Q155.70-67.25 157.20-65.66L157.20-65.66L157.20-65.66Q158.70-64.06 158.70-60.97L158.70-60.97L158.70-60.97Q158.70-57.88 156.66-55.51L156.66-55.51L156.66-55.51Q154.61-53.14 151.33-53.14L151.33-53.14L151.33-53.14Q144.60-53.14 144.60-60.15L144.60-60.15L144.60-60.15Q144.60-63.24 146.33-65.79ZM135.41 7.01L135.41 7.01L135.41 7.01Q135.13 8.28 135.13 9.10L135.13 9.10L135.13 9.10Q135.13 14.92 139.69 14.92L139.69 14.92L139.69 14.92Q142.32 14.92 144.19 11.69L144.19 11.69L144.19 11.69Q146.06 8.46 146.87 3.46L146.87 3.46L146.87 3.46Q148.33-5.46 148.33-13.38L148.33-13.38L148.33-13.38Q148.33-28.85 144.96-44.32L144.96-44.32L144.96-44.32Q147.78-46.05 151.38-46.05L151.38-46.05L151.38-46.05Q154.97-46.05 157.02-44.13L157.02-44.13L157.02-44.13Q159.07-42.22 159.07-39.04L159.07-39.04L159.07-39.04Q159.07-25.75 157.34-4.00L157.34-4.00L157.34-4.00Q155.79 15.38 146.24 20.66L146.24 20.66L146.24 20.66Q142.51 22.75 137.46 22.75L137.46 22.75L137.46 22.75Q132.41 22.75 128.86 20.52L128.86 20.52L128.86 20.52Q125.31 18.29 125.31 14.65L125.31 14.65L125.31 14.65Q125.31 11.01 127.81 8.92L127.81 8.92L127.81 8.92Q130.31 6.83 133.59 6.83L133.59 6.83L133.59 6.83Q134.32 6.83 135.41 7.01ZM177.00-20.66L177.00-20.66L177.00-20.66Q177.00-14.11 179.09-10.33L179.09-10.33L179.09-10.33Q181.18-6.55 186.09-6.55L186.09-6.55L186.09-6.55Q191.01-6.55 193.78-9.87L193.78-9.87L193.78-9.87Q196.56-13.20 196.56-17.93L196.56-17.93L196.56-17.93Q199.65-17.93 201.93-16.38L201.93-16.38L201.93-16.38Q204.20-14.83 204.20-12.10L204.20-12.10L204.20-12.10Q204.20-6.46 198.20-2.68L198.20-2.68L198.20-2.68Q192.19 1.09 185.55 1.09L185.55 1.09L185.55 1.09Q175.18 1.09 170.53-4.50L170.53-4.50L170.53-4.50Q165.89-10.10 165.89-21.11L165.89-21.11L165.89-21.11Q165.89-32.12 172.13-39.63L172.13-39.63L172.13-39.63Q178.36-47.14 188.73-47.14L188.73-47.14L188.73-47.14Q195.83-47.14 200.15-43.91L200.15-43.91L200.15-43.91Q204.48-40.68 204.48-33.90L204.48-33.90L204.48-33.90Q204.48-27.12 198.33-23.71L198.33-23.71L198.33-23.71Q192.19-20.29 183.37-20.29L183.37-20.29L183.37-20.29Q180.27-20.29 177.00-20.66ZM177.09-27.85L177.09-27.85L177.09-27.85Q179.82-27.30 182.82-27.30L182.82-27.30L182.82-27.30Q189.37-27.30 193.83-29.76L193.83-29.76L193.83-29.76Q194.38-31.94 194.38-33.21L194.38-33.21L194.38-33.21Q194.38-36.40 192.10-38.04L192.10-38.04L192.10-38.04Q189.83-39.68 185.87-39.68L185.87-39.68L185.87-39.68Q181.91-39.68 178.72-37.13L178.72-37.13L178.72-37.13Q177.09-32.40 177.09-27.85ZM231.14 1.09L231.14 1.09L231.14 1.09Q221.40 1.09 216.22-4.09L216.22-4.09L216.22-4.09Q211.03-9.28 211.03-19.02L211.03-19.02L211.03-19.02Q211.03-30.85 217.67-38.99L217.67-38.99L217.67-38.99Q224.31-47.14 235.33-47.14L235.33-47.14L235.33-47.14Q241.61-47.14 245.52-44.64L245.52-44.64L245.52-44.64Q249.43-42.13 249.43-37.22L249.43-37.22L249.43-37.22Q249.43-34.03 246.88-31.53L246.88-31.53L246.88-31.53Q244.34-29.03 241.15-29.03L241.15-29.03L241.15-29.03Q240.42-29.03 239.33-29.21L239.33-29.21L239.33-29.21Q239.60-30.39 239.60-31.30L239.60-31.30L239.60-31.30Q239.60-34.58 237.87-36.85L237.87-36.85L237.87-36.85Q236.15-39.13 232.14-39.13L232.14-39.13L232.14-39.13Q228.14-39.13 224.68-35.85L224.68-35.85L224.68-35.85Q222.22-29.48 222.22-19.93L222.22-19.93L222.22-19.93Q222.22-6.92 232.05-6.92L232.05-6.92L232.05-6.92Q237.33-6.92 239.92-10.33L239.92-10.33L239.92-10.33Q242.52-13.74 242.52-18.02L242.52-18.02L242.52-18.02Q245.61-18.02 247.88-16.47L247.88-16.47L247.88-16.47Q250.16-14.92 250.16-12.19L250.16-12.19L250.16-12.19Q250.16-6.28 244.11-2.59L244.11-2.59L244.11-2.59Q238.06 1.09 231.14 1.09ZM261.72-59.42L261.72-59.42L261.72-59.42Q264.63-60.88 267.63-60.88L267.63-60.88L267.63-60.88Q270.63-60.88 272.50-58.97L272.50-58.97L272.50-58.97Q274.37-57.06 274.37-53.33L274.37-53.33L274.37-53.33Q274.37-49.59 273.91-44.86L273.91-44.86L273.91-44.86Q280.74-44.86 286.92-46.77L286.92-46.77L286.92-46.77Q288.01-44.95 288.01-42.54L288.01-42.54L288.01-42.54Q288.01-40.13 285.88-38.63L285.88-38.63L285.88-38.63Q283.74-37.13 281.55-37.13L281.55-37.13L281.55-37.13Q279.37-37.13 276.64-37.67L276.64-37.67L276.64-37.67Q273.91-38.22 273.09-38.31L273.09-38.31L273.09-38.31Q273-37.49 272.59-35.03L272.59-35.03L272.59-35.03Q272.18-32.58 271.91-30.76L271.91-30.76L271.91-30.76Q271.18-25.75 271.18-20.02L271.18-20.02L271.18-20.02Q271.18-7.55 279.28-7.55L279.28-7.55L279.28-7.55Q282.28-7.55 286.19-9.65L286.19-9.65L286.19-9.65Q287.38-7.92 287.38-5.19L287.38-5.19L287.38-5.19Q287.38-2.46 284.42-0.96L284.42-0.96L284.42-0.96Q281.46 0.55 277.37 0.55L277.37 0.55L277.37 0.55Q261.35 0.55 261.35-17.65L261.35-17.65L261.35-17.65Q261.35-20.29 262.13-27.21L262.13-27.21L262.13-27.21Q262.90-34.13 262.90-38.40L262.90-38.40L262.90-38.40Q258.53-38.13 255.89-36.85L255.89-36.85L255.89-36.85Q254.80-38.49 254.80-40.63L254.80-40.63L254.80-40.63Q254.80-42.77 256.35-44.18L256.35-44.18L256.35-44.18Q257.89-45.59 260.17-45.59L260.17-45.59L260.17-45.59Q262.44-45.59 263.17-45.50L263.17-45.50L263.17-45.50Q263.26-46.23 263.26-47.41L263.26-47.41L263.26-47.41Q263.26-54.24 261.72-59.42ZM302.21-16.56L302.21-16.56L302.21-16.56Q301.94-15.29 301.94-14.47L301.94-14.47L301.94-14.47Q301.94-10.74 304.17-8.74L304.17-8.74L304.17-8.74Q306.40-6.73 310.17-6.73L310.17-6.73L310.17-6.73Q313.95-6.73 316.45-8.14L316.45-8.14L316.45-8.14Q318.95-9.55 318.95-12.38L318.95-12.38L318.95-12.38Q318.95-15.20 316.27-16.88L316.27-16.88L316.27-16.88Q313.59-18.56 309.81-19.56L309.81-19.56L309.81-19.56Q306.03-20.57 302.21-21.79L302.21-21.79L302.21-21.79Q298.39-23.02 295.70-25.66L295.70-25.66L295.70-25.66Q293.02-28.30 293.02-32.30L293.02-32.30L293.02-32.30Q293.02-38.58 299.66-42.86L299.66-42.86L299.66-42.86Q306.31-47.14 313.59-47.14L313.59-47.14L313.59-47.14Q321.59-47.14 325.78-43.86L325.78-43.86L325.78-43.86Q328.24-41.95 328.24-38.81L328.24-38.81L328.24-38.81Q328.24-35.67 325.83-33.72L325.83-33.72L325.83-33.72Q323.41-31.76 319.96-31.76L319.96-31.76L319.96-31.76Q319.23-31.76 318.14-31.94L318.14-31.94L318.14-31.94Q318.41-33.12 318.41-34.03L318.41-34.03L318.41-34.03Q318.41-36.67 316.41-38.04L316.41-38.04L316.41-38.04Q314.40-39.40 310.99-39.40L310.99-39.40L310.99-39.40Q307.58-39.40 304.76-38.04L304.76-38.04L304.76-38.04Q303.67-36.58 303.67-34.31L303.67-34.31L303.67-34.31Q303.67-32.03 306.31-30.62L306.31-30.62L306.31-30.62Q308.94-29.21 312.72-28.16L312.72-28.16L312.72-28.16Q316.50-27.12 320.32-25.80L320.32-25.80L320.32-25.80Q324.14-24.48 326.78-21.70L326.78-21.70L326.78-21.70Q329.42-18.93 329.42-14.74L329.42-14.74L329.42-14.74Q329.42-7.92 322.64-3.41L322.64-3.41L322.64-3.41Q315.86 1.09 308.67 1.09L308.67 1.09L308.67 1.09Q301.48 1.09 296.80-1.50L296.80-1.50L296.80-1.50Q292.11-4.09 292.11-9.37L292.11-9.37L292.11-9.37Q292.11-12.65 294.52-14.70L294.52-14.70L294.52-14.70Q296.93-16.74 300.39-16.74L300.39-16.74L300.39-16.74Q301.12-16.74 302.21-16.56Z" fill="url(#editing-shiny-gradient)"></path></g></g><g filter="url(#editing-shiny2)"><g transform="translate(83.01500225067139, 120.00000381469727)"><path d="M16.47-8.92L16.47-8.92L16.47-8.92Q20.20-7.55 25.12-7.55L25.12-7.55L25.12-7.55Q30.03-7.55 33.76-9.46L33.76-9.46L33.76-9.46Q38.22-17.11 38.22-27.80L38.22-27.80L38.22-27.80Q38.22-38.49 34.49-38.49L34.49-38.49L34.49-38.49Q29.85-38.49 24.07-29.12L24.07-29.12L24.07-29.12Q18.29-19.75 16.47-8.92ZM16.47-27.57L16.47-27.57L16.47-27.57Q26.12-46.59 37.86-46.59L37.86-46.59L37.86-46.59Q44.04-46.59 46.73-41.54L46.73-41.54L46.73-41.54Q49.41-36.49 49.41-28.76L49.41-28.76L49.41-28.76Q49.41-17.65 42.86-8.55L42.86-8.55L42.86-8.55Q36.31 0.55 26.39 0.55L26.39 0.55L26.39 0.55Q20.75 0.55 16.11-1.27L16.11-1.27L16.11-1.27Q16.29 11.19 17.65 21.57L17.65 21.57L17.65 21.57Q14.74 22.66 11.65 22.66L11.65 22.66L11.65 22.66Q8.55 22.66 6.55 20.61L6.55 20.61L6.55 20.61Q4.55 18.56 4.55 14.38L4.55 14.38L4.55 14.38Q4.55 10.19 5.64 0.09L5.64 0.09L5.64 0.09Q6.73-10.01 6.73-15.74L6.73-15.74L6.73-15.74Q6.73-34.67 4.73-44.95L4.73-44.95L4.73-44.95Q7.64-46.05 10.87-46.05L10.87-46.05L10.87-46.05Q14.11-46.05 15.88-44.18L15.88-44.18L15.88-44.18Q17.65-42.31 17.65-38.36L17.65-38.36L17.65-38.36Q17.65-34.40 16.47-27.57ZM70.25-1.09L70.25-1.09Q67.43 0 64.25 0L64.25 0L64.25 0Q61.06 0 59.10-1.50L59.10-1.50L59.10-1.50Q57.15-3.00 57.15-5.69L57.15-5.69L57.15-5.69Q57.15-8.37 57.97-15.47L57.97-15.47L57.97-15.47Q58.79-22.57 58.79-29.26L58.79-29.26L58.79-29.26Q58.79-35.95 56.69-44.95L56.69-44.95L56.69-44.95Q59.61-46.05 62.43-46.05L62.43-46.05L62.43-46.05Q65.25-46.05 67.29-44.13L67.29-44.13L67.29-44.13Q69.34-42.22 69.34-39.04L69.34-39.04L69.34-39.04Q69.34-37.40 68.80-34.17L68.80-34.17L68.80-34.17Q68.25-30.94 68.16-29.30L68.16-29.30L68.16-29.30Q71.71-37.40 76.58-42.00L76.58-42.00L76.58-42.00Q81.44-46.59 86.27-46.59L86.27-46.59L86.27-46.59Q89.63-46.59 91.64-44.23L91.64-44.23L91.64-44.23Q93.64-41.86 93.64-38.27L93.64-38.27L93.64-38.27Q93.64-34.67 91.82-32.44L91.82-32.44L91.82-32.44Q90.00-30.21 87.31-30.21L87.31-30.21L87.31-30.21Q84.63-30.21 82.99-30.76L82.99-30.76L82.99-30.76Q83.27-31.85 83.27-32.76L83.27-32.76L83.27-32.76Q83.27-36.49 80.63-36.49L80.63-36.49L80.63-36.49Q76.62-36.49 73.12-28.44L73.12-28.44L73.12-28.44Q69.62-20.38 68.43-13.38L68.43-13.38L68.43-13.38Q68.89-6.55 70.25-1.09L70.25-1.09ZM115.02 1.09L115.02 1.09L115.02 1.09Q105.01 1.09 100.28-4.78L100.28-4.78L100.28-4.78Q95.55-10.65 95.55-21.16L95.55-21.16L95.55-21.16Q95.55-31.67 101.83-39.40L101.83-39.40L101.83-39.40Q108.11-47.14 117.94-47.14L117.94-47.14L117.94-47.14Q138.14-47.14 138.14-24.39L138.14-24.39L138.14-24.39Q138.14-13.74 131.59-6.32L131.59-6.32L131.59-6.32Q125.03 1.09 115.02 1.09ZM108.47-37.13L108.47-37.13L108.47-37.13Q106.83-31.85 106.83-26.57L106.83-26.57L106.83-26.57Q106.83-21.29 107.20-18.38L107.20-18.38L107.20-18.38Q107.56-15.47 108.56-12.56L108.56-12.56L108.56-12.56Q110.66-6.64 116.80-6.64L116.80-6.64L116.80-6.64Q122.94-6.64 124.90-9.92L124.90-9.92L124.90-9.92Q126.85-13.20 126.85-20.02L126.85-20.02L126.85-20.02Q126.85-39.40 117.66-39.40L117.66-39.40L117.66-39.40Q112.38-39.40 108.47-37.13ZM146.33-65.79L146.33-65.79L146.33-65.79Q149.51-67.25 152.61-67.25L152.61-67.25L152.61-67.25Q155.70-67.25 157.20-65.66L157.20-65.66L157.20-65.66Q158.70-64.06 158.70-60.97L158.70-60.97L158.70-60.97Q158.70-57.88 156.66-55.51L156.66-55.51L156.66-55.51Q154.61-53.14 151.33-53.14L151.33-53.14L151.33-53.14Q144.60-53.14 144.60-60.15L144.60-60.15L144.60-60.15Q144.60-63.24 146.33-65.79ZM135.41 7.01L135.41 7.01L135.41 7.01Q135.13 8.28 135.13 9.10L135.13 9.10L135.13 9.10Q135.13 14.92 139.69 14.92L139.69 14.92L139.69 14.92Q142.32 14.92 144.19 11.69L144.19 11.69L144.19 11.69Q146.06 8.46 146.87 3.46L146.87 3.46L146.87 3.46Q148.33-5.46 148.33-13.38L148.33-13.38L148.33-13.38Q148.33-28.85 144.96-44.32L144.96-44.32L144.96-44.32Q147.78-46.05 151.38-46.05L151.38-46.05L151.38-46.05Q154.97-46.05 157.02-44.13L157.02-44.13L157.02-44.13Q159.07-42.22 159.07-39.04L159.07-39.04L159.07-39.04Q159.07-25.75 157.34-4.00L157.34-4.00L157.34-4.00Q155.79 15.38 146.24 20.66L146.24 20.66L146.24 20.66Q142.51 22.75 137.46 22.75L137.46 22.75L137.46 22.75Q132.41 22.75 128.86 20.52L128.86 20.52L128.86 20.52Q125.31 18.29 125.31 14.65L125.31 14.65L125.31 14.65Q125.31 11.01 127.81 8.92L127.81 8.92L127.81 8.92Q130.31 6.83 133.59 6.83L133.59 6.83L133.59 6.83Q134.32 6.83 135.41 7.01ZM177.00-20.66L177.00-20.66L177.00-20.66Q177.00-14.11 179.09-10.33L179.09-10.33L179.09-10.33Q181.18-6.55 186.09-6.55L186.09-6.55L186.09-6.55Q191.01-6.55 193.78-9.87L193.78-9.87L193.78-9.87Q196.56-13.20 196.56-17.93L196.56-17.93L196.56-17.93Q199.65-17.93 201.93-16.38L201.93-16.38L201.93-16.38Q204.20-14.83 204.20-12.10L204.20-12.10L204.20-12.10Q204.20-6.46 198.20-2.68L198.20-2.68L198.20-2.68Q192.19 1.09 185.55 1.09L185.55 1.09L185.55 1.09Q175.18 1.09 170.53-4.50L170.53-4.50L170.53-4.50Q165.89-10.10 165.89-21.11L165.89-21.11L165.89-21.11Q165.89-32.12 172.13-39.63L172.13-39.63L172.13-39.63Q178.36-47.14 188.73-47.14L188.73-47.14L188.73-47.14Q195.83-47.14 200.15-43.91L200.15-43.91L200.15-43.91Q204.48-40.68 204.48-33.90L204.48-33.90L204.48-33.90Q204.48-27.12 198.33-23.71L198.33-23.71L198.33-23.71Q192.19-20.29 183.37-20.29L183.37-20.29L183.37-20.29Q180.27-20.29 177.00-20.66ZM177.09-27.85L177.09-27.85L177.09-27.85Q179.82-27.30 182.82-27.30L182.82-27.30L182.82-27.30Q189.37-27.30 193.83-29.76L193.83-29.76L193.83-29.76Q194.38-31.94 194.38-33.21L194.38-33.21L194.38-33.21Q194.38-36.40 192.10-38.04L192.10-38.04L192.10-38.04Q189.83-39.68 185.87-39.68L185.87-39.68L185.87-39.68Q181.91-39.68 178.72-37.13L178.72-37.13L178.72-37.13Q177.09-32.40 177.09-27.85ZM231.14 1.09L231.14 1.09L231.14 1.09Q221.40 1.09 216.22-4.09L216.22-4.09L216.22-4.09Q211.03-9.28 211.03-19.02L211.03-19.02L211.03-19.02Q211.03-30.85 217.67-38.99L217.67-38.99L217.67-38.99Q224.31-47.14 235.33-47.14L235.33-47.14L235.33-47.14Q241.61-47.14 245.52-44.64L245.52-44.64L245.52-44.64Q249.43-42.13 249.43-37.22L249.43-37.22L249.43-37.22Q249.43-34.03 246.88-31.53L246.88-31.53L246.88-31.53Q244.34-29.03 241.15-29.03L241.15-29.03L241.15-29.03Q240.42-29.03 239.33-29.21L239.33-29.21L239.33-29.21Q239.60-30.39 239.60-31.30L239.60-31.30L239.60-31.30Q239.60-34.58 237.87-36.85L237.87-36.85L237.87-36.85Q236.15-39.13 232.14-39.13L232.14-39.13L232.14-39.13Q228.14-39.13 224.68-35.85L224.68-35.85L224.68-35.85Q222.22-29.48 222.22-19.93L222.22-19.93L222.22-19.93Q222.22-6.92 232.05-6.92L232.05-6.92L232.05-6.92Q237.33-6.92 239.92-10.33L239.92-10.33L239.92-10.33Q242.52-13.74 242.52-18.02L242.52-18.02L242.52-18.02Q245.61-18.02 247.88-16.47L247.88-16.47L247.88-16.47Q250.16-14.92 250.16-12.19L250.16-12.19L250.16-12.19Q250.16-6.28 244.11-2.59L244.11-2.59L244.11-2.59Q238.06 1.09 231.14 1.09ZM261.72-59.42L261.72-59.42L261.72-59.42Q264.63-60.88 267.63-60.88L267.63-60.88L267.63-60.88Q270.63-60.88 272.50-58.97L272.50-58.97L272.50-58.97Q274.37-57.06 274.37-53.33L274.37-53.33L274.37-53.33Q274.37-49.59 273.91-44.86L273.91-44.86L273.91-44.86Q280.74-44.86 286.92-46.77L286.92-46.77L286.92-46.77Q288.01-44.95 288.01-42.54L288.01-42.54L288.01-42.54Q288.01-40.13 285.88-38.63L285.88-38.63L285.88-38.63Q283.74-37.13 281.55-37.13L281.55-37.13L281.55-37.13Q279.37-37.13 276.64-37.67L276.64-37.67L276.64-37.67Q273.91-38.22 273.09-38.31L273.09-38.31L273.09-38.31Q273-37.49 272.59-35.03L272.59-35.03L272.59-35.03Q272.18-32.58 271.91-30.76L271.91-30.76L271.91-30.76Q271.18-25.75 271.18-20.02L271.18-20.02L271.18-20.02Q271.18-7.55 279.28-7.55L279.28-7.55L279.28-7.55Q282.28-7.55 286.19-9.65L286.19-9.65L286.19-9.65Q287.38-7.92 287.38-5.19L287.38-5.19L287.38-5.19Q287.38-2.46 284.42-0.96L284.42-0.96L284.42-0.96Q281.46 0.55 277.37 0.55L277.37 0.55L277.37 0.55Q261.35 0.55 261.35-17.65L261.35-17.65L261.35-17.65Q261.35-20.29 262.13-27.21L262.13-27.21L262.13-27.21Q262.90-34.13 262.90-38.40L262.90-38.40L262.90-38.40Q258.53-38.13 255.89-36.85L255.89-36.85L255.89-36.85Q254.80-38.49 254.80-40.63L254.80-40.63L254.80-40.63Q254.80-42.77 256.35-44.18L256.35-44.18L256.35-44.18Q257.89-45.59 260.17-45.59L260.17-45.59L260.17-45.59Q262.44-45.59 263.17-45.50L263.17-45.50L263.17-45.50Q263.26-46.23 263.26-47.41L263.26-47.41L263.26-47.41Q263.26-54.24 261.72-59.42ZM302.21-16.56L302.21-16.56L302.21-16.56Q301.94-15.29 301.94-14.47L301.94-14.47L301.94-14.47Q301.94-10.74 304.17-8.74L304.17-8.74L304.17-8.74Q306.40-6.73 310.17-6.73L310.17-6.73L310.17-6.73Q313.95-6.73 316.45-8.14L316.45-8.14L316.45-8.14Q318.95-9.55 318.95-12.38L318.95-12.38L318.95-12.38Q318.95-15.20 316.27-16.88L316.27-16.88L316.27-16.88Q313.59-18.56 309.81-19.56L309.81-19.56L309.81-19.56Q306.03-20.57 302.21-21.79L302.21-21.79L302.21-21.79Q298.39-23.02 295.70-25.66L295.70-25.66L295.70-25.66Q293.02-28.30 293.02-32.30L293.02-32.30L293.02-32.30Q293.02-38.58 299.66-42.86L299.66-42.86L299.66-42.86Q306.31-47.14 313.59-47.14L313.59-47.14L313.59-47.14Q321.59-47.14 325.78-43.86L325.78-43.86L325.78-43.86Q328.24-41.95 328.24-38.81L328.24-38.81L328.24-38.81Q328.24-35.67 325.83-33.72L325.83-33.72L325.83-33.72Q323.41-31.76 319.96-31.76L319.96-31.76L319.96-31.76Q319.23-31.76 318.14-31.94L318.14-31.94L318.14-31.94Q318.41-33.12 318.41-34.03L318.41-34.03L318.41-34.03Q318.41-36.67 316.41-38.04L316.41-38.04L316.41-38.04Q314.40-39.40 310.99-39.40L310.99-39.40L310.99-39.40Q307.58-39.40 304.76-38.04L304.76-38.04L304.76-38.04Q303.67-36.58 303.67-34.31L303.67-34.31L303.67-34.31Q303.67-32.03 306.31-30.62L306.31-30.62L306.31-30.62Q308.94-29.21 312.72-28.16L312.72-28.16L312.72-28.16Q316.50-27.12 320.32-25.80L320.32-25.80L320.32-25.80Q324.14-24.48 326.78-21.70L326.78-21.70L326.78-21.70Q329.42-18.93 329.42-14.74L329.42-14.74L329.42-14.74Q329.42-7.92 322.64-3.41L322.64-3.41L322.64-3.41Q315.86 1.09 308.67 1.09L308.67 1.09L308.67 1.09Q301.48 1.09 296.80-1.50L296.80-1.50L296.80-1.50Q292.11-4.09 292.11-9.37L292.11-9.37L292.11-9.37Q292.11-12.65 294.52-14.70L294.52-14.70L294.52-14.70Q296.93-16.74 300.39-16.74L300.39-16.74L300.39-16.74Q301.12-16.74 302.21-16.56Z" fill="url(#editing-shiny-gradient2)"></path></g></g><style>text {
  font-size: 64px;
  font-family: Arial Black;
  dominant-baseline: central;
  text-anchor: middle;
}</style></svg>